%TF.GenerationSoftware,KiCad,Pcbnew,7.0.11*%
%TF.CreationDate,2024-06-18T14:21:46+05:30*%
%TF.ProjectId,Atmega328p_board,41746d65-6761-4333-9238-705f626f6172,1*%
%TF.SameCoordinates,Original*%
%TF.FileFunction,Legend,Top*%
%TF.FilePolarity,Positive*%
%FSLAX46Y46*%
G04 Gerber Fmt 4.6, Leading zero omitted, Abs format (unit mm)*
G04 Created by KiCad (PCBNEW 7.0.11) date 2024-06-18 14:21:46*
%MOMM*%
%LPD*%
G01*
G04 APERTURE LIST*
%ADD10C,0.100000*%
%ADD11C,0.050000*%
%ADD12C,0.120000*%
%ADD13C,0.127000*%
%ADD14C,0.200000*%
G04 APERTURE END LIST*
D10*
X154670800Y-102844600D02*
X154670800Y-98272600D01*
X150606800Y-102844600D02*
X154670800Y-102844600D01*
X150606800Y-98272600D02*
X150606800Y-102844600D01*
X154670800Y-98272600D02*
X150606800Y-98272600D01*
D11*
X152988134Y-98890309D02*
X153154800Y-99390309D01*
X153154800Y-99390309D02*
X153321467Y-98890309D01*
X153773847Y-99342690D02*
X153750038Y-99366500D01*
X153750038Y-99366500D02*
X153678609Y-99390309D01*
X153678609Y-99390309D02*
X153630990Y-99390309D01*
X153630990Y-99390309D02*
X153559562Y-99366500D01*
X153559562Y-99366500D02*
X153511943Y-99318880D01*
X153511943Y-99318880D02*
X153488133Y-99271261D01*
X153488133Y-99271261D02*
X153464324Y-99176023D01*
X153464324Y-99176023D02*
X153464324Y-99104595D01*
X153464324Y-99104595D02*
X153488133Y-99009357D01*
X153488133Y-99009357D02*
X153511943Y-98961738D01*
X153511943Y-98961738D02*
X153559562Y-98914119D01*
X153559562Y-98914119D02*
X153630990Y-98890309D01*
X153630990Y-98890309D02*
X153678609Y-98890309D01*
X153678609Y-98890309D02*
X153750038Y-98914119D01*
X153750038Y-98914119D02*
X153773847Y-98937928D01*
X154273847Y-99342690D02*
X154250038Y-99366500D01*
X154250038Y-99366500D02*
X154178609Y-99390309D01*
X154178609Y-99390309D02*
X154130990Y-99390309D01*
X154130990Y-99390309D02*
X154059562Y-99366500D01*
X154059562Y-99366500D02*
X154011943Y-99318880D01*
X154011943Y-99318880D02*
X153988133Y-99271261D01*
X153988133Y-99271261D02*
X153964324Y-99176023D01*
X153964324Y-99176023D02*
X153964324Y-99104595D01*
X153964324Y-99104595D02*
X153988133Y-99009357D01*
X153988133Y-99009357D02*
X154011943Y-98961738D01*
X154011943Y-98961738D02*
X154059562Y-98914119D01*
X154059562Y-98914119D02*
X154130990Y-98890309D01*
X154130990Y-98890309D02*
X154178609Y-98890309D01*
X154178609Y-98890309D02*
X154250038Y-98914119D01*
X154250038Y-98914119D02*
X154273847Y-98937928D01*
D10*
X124445333Y-87019484D02*
X124445333Y-87781389D01*
X124064380Y-87400436D02*
X124826285Y-87400436D01*
X125016761Y-89543293D02*
X125064380Y-89448055D01*
X125064380Y-89448055D02*
X125064380Y-89305198D01*
X125064380Y-89305198D02*
X125016761Y-89162341D01*
X125016761Y-89162341D02*
X124921523Y-89067103D01*
X124921523Y-89067103D02*
X124826285Y-89019484D01*
X124826285Y-89019484D02*
X124635809Y-88971865D01*
X124635809Y-88971865D02*
X124492952Y-88971865D01*
X124492952Y-88971865D02*
X124302476Y-89019484D01*
X124302476Y-89019484D02*
X124207238Y-89067103D01*
X124207238Y-89067103D02*
X124112000Y-89162341D01*
X124112000Y-89162341D02*
X124064380Y-89305198D01*
X124064380Y-89305198D02*
X124064380Y-89400436D01*
X124064380Y-89400436D02*
X124112000Y-89543293D01*
X124112000Y-89543293D02*
X124159619Y-89590912D01*
X124159619Y-89590912D02*
X124492952Y-89590912D01*
X124492952Y-89590912D02*
X124492952Y-89400436D01*
X124064380Y-90019484D02*
X125064380Y-90019484D01*
X125064380Y-90019484D02*
X124064380Y-90590912D01*
X124064380Y-90590912D02*
X125064380Y-90590912D01*
X124064380Y-91067103D02*
X125064380Y-91067103D01*
X125064380Y-91067103D02*
X125064380Y-91305198D01*
X125064380Y-91305198D02*
X125016761Y-91448055D01*
X125016761Y-91448055D02*
X124921523Y-91543293D01*
X124921523Y-91543293D02*
X124826285Y-91590912D01*
X124826285Y-91590912D02*
X124635809Y-91638531D01*
X124635809Y-91638531D02*
X124492952Y-91638531D01*
X124492952Y-91638531D02*
X124302476Y-91590912D01*
X124302476Y-91590912D02*
X124207238Y-91543293D01*
X124207238Y-91543293D02*
X124112000Y-91448055D01*
X124112000Y-91448055D02*
X124064380Y-91305198D01*
X124064380Y-91305198D02*
X124064380Y-91067103D01*
X150081466Y-97829233D02*
X150081466Y-97129233D01*
X150814799Y-97762566D02*
X150781466Y-97795900D01*
X150781466Y-97795900D02*
X150681466Y-97829233D01*
X150681466Y-97829233D02*
X150614799Y-97829233D01*
X150614799Y-97829233D02*
X150514799Y-97795900D01*
X150514799Y-97795900D02*
X150448133Y-97729233D01*
X150448133Y-97729233D02*
X150414799Y-97662566D01*
X150414799Y-97662566D02*
X150381466Y-97529233D01*
X150381466Y-97529233D02*
X150381466Y-97429233D01*
X150381466Y-97429233D02*
X150414799Y-97295900D01*
X150414799Y-97295900D02*
X150448133Y-97229233D01*
X150448133Y-97229233D02*
X150514799Y-97162566D01*
X150514799Y-97162566D02*
X150614799Y-97129233D01*
X150614799Y-97129233D02*
X150681466Y-97129233D01*
X150681466Y-97129233D02*
X150781466Y-97162566D01*
X150781466Y-97162566D02*
X150814799Y-97195900D01*
X151081466Y-97795900D02*
X151181466Y-97829233D01*
X151181466Y-97829233D02*
X151348133Y-97829233D01*
X151348133Y-97829233D02*
X151414799Y-97795900D01*
X151414799Y-97795900D02*
X151448133Y-97762566D01*
X151448133Y-97762566D02*
X151481466Y-97695900D01*
X151481466Y-97695900D02*
X151481466Y-97629233D01*
X151481466Y-97629233D02*
X151448133Y-97562566D01*
X151448133Y-97562566D02*
X151414799Y-97529233D01*
X151414799Y-97529233D02*
X151348133Y-97495900D01*
X151348133Y-97495900D02*
X151214799Y-97462566D01*
X151214799Y-97462566D02*
X151148133Y-97429233D01*
X151148133Y-97429233D02*
X151114799Y-97395900D01*
X151114799Y-97395900D02*
X151081466Y-97329233D01*
X151081466Y-97329233D02*
X151081466Y-97262566D01*
X151081466Y-97262566D02*
X151114799Y-97195900D01*
X151114799Y-97195900D02*
X151148133Y-97162566D01*
X151148133Y-97162566D02*
X151214799Y-97129233D01*
X151214799Y-97129233D02*
X151381466Y-97129233D01*
X151381466Y-97129233D02*
X151481466Y-97162566D01*
X151781466Y-97829233D02*
X151781466Y-97129233D01*
X151781466Y-97129233D02*
X152048133Y-97129233D01*
X152048133Y-97129233D02*
X152114800Y-97162566D01*
X152114800Y-97162566D02*
X152148133Y-97195900D01*
X152148133Y-97195900D02*
X152181466Y-97262566D01*
X152181466Y-97262566D02*
X152181466Y-97362566D01*
X152181466Y-97362566D02*
X152148133Y-97429233D01*
X152148133Y-97429233D02*
X152114800Y-97462566D01*
X152114800Y-97462566D02*
X152048133Y-97495900D01*
X152048133Y-97495900D02*
X151781466Y-97495900D01*
D11*
X150987847Y-104248119D02*
X150940228Y-104224309D01*
X150940228Y-104224309D02*
X150868799Y-104224309D01*
X150868799Y-104224309D02*
X150797371Y-104248119D01*
X150797371Y-104248119D02*
X150749752Y-104295738D01*
X150749752Y-104295738D02*
X150725942Y-104343357D01*
X150725942Y-104343357D02*
X150702133Y-104438595D01*
X150702133Y-104438595D02*
X150702133Y-104510023D01*
X150702133Y-104510023D02*
X150725942Y-104605261D01*
X150725942Y-104605261D02*
X150749752Y-104652880D01*
X150749752Y-104652880D02*
X150797371Y-104700500D01*
X150797371Y-104700500D02*
X150868799Y-104724309D01*
X150868799Y-104724309D02*
X150916418Y-104724309D01*
X150916418Y-104724309D02*
X150987847Y-104700500D01*
X150987847Y-104700500D02*
X151011656Y-104676690D01*
X151011656Y-104676690D02*
X151011656Y-104510023D01*
X151011656Y-104510023D02*
X150916418Y-104510023D01*
X151225942Y-104724309D02*
X151225942Y-104224309D01*
X151225942Y-104224309D02*
X151511656Y-104724309D01*
X151511656Y-104724309D02*
X151511656Y-104224309D01*
X151749752Y-104724309D02*
X151749752Y-104224309D01*
X151749752Y-104224309D02*
X151868800Y-104224309D01*
X151868800Y-104224309D02*
X151940228Y-104248119D01*
X151940228Y-104248119D02*
X151987847Y-104295738D01*
X151987847Y-104295738D02*
X152011657Y-104343357D01*
X152011657Y-104343357D02*
X152035466Y-104438595D01*
X152035466Y-104438595D02*
X152035466Y-104510023D01*
X152035466Y-104510023D02*
X152011657Y-104605261D01*
X152011657Y-104605261D02*
X151987847Y-104652880D01*
X151987847Y-104652880D02*
X151940228Y-104700500D01*
X151940228Y-104700500D02*
X151868800Y-104724309D01*
X151868800Y-104724309D02*
X151749752Y-104724309D01*
X133727752Y-104724309D02*
X133727752Y-104224309D01*
X133727752Y-104224309D02*
X133846800Y-104224309D01*
X133846800Y-104224309D02*
X133918228Y-104248119D01*
X133918228Y-104248119D02*
X133965847Y-104295738D01*
X133965847Y-104295738D02*
X133989657Y-104343357D01*
X133989657Y-104343357D02*
X134013466Y-104438595D01*
X134013466Y-104438595D02*
X134013466Y-104510023D01*
X134013466Y-104510023D02*
X133989657Y-104605261D01*
X133989657Y-104605261D02*
X133965847Y-104652880D01*
X133965847Y-104652880D02*
X133918228Y-104700500D01*
X133918228Y-104700500D02*
X133846800Y-104724309D01*
X133846800Y-104724309D02*
X133727752Y-104724309D01*
X134465847Y-104224309D02*
X134227752Y-104224309D01*
X134227752Y-104224309D02*
X134203943Y-104462404D01*
X134203943Y-104462404D02*
X134227752Y-104438595D01*
X134227752Y-104438595D02*
X134275371Y-104414785D01*
X134275371Y-104414785D02*
X134394419Y-104414785D01*
X134394419Y-104414785D02*
X134442038Y-104438595D01*
X134442038Y-104438595D02*
X134465847Y-104462404D01*
X134465847Y-104462404D02*
X134489657Y-104510023D01*
X134489657Y-104510023D02*
X134489657Y-104629071D01*
X134489657Y-104629071D02*
X134465847Y-104676690D01*
X134465847Y-104676690D02*
X134442038Y-104700500D01*
X134442038Y-104700500D02*
X134394419Y-104724309D01*
X134394419Y-104724309D02*
X134275371Y-104724309D01*
X134275371Y-104724309D02*
X134227752Y-104700500D01*
X134227752Y-104700500D02*
X134203943Y-104676690D01*
X162368700Y-100149741D02*
X162392509Y-100078313D01*
X162392509Y-100078313D02*
X162392509Y-99959265D01*
X162392509Y-99959265D02*
X162368700Y-99911646D01*
X162368700Y-99911646D02*
X162344890Y-99887837D01*
X162344890Y-99887837D02*
X162297271Y-99864027D01*
X162297271Y-99864027D02*
X162249652Y-99864027D01*
X162249652Y-99864027D02*
X162202033Y-99887837D01*
X162202033Y-99887837D02*
X162178223Y-99911646D01*
X162178223Y-99911646D02*
X162154414Y-99959265D01*
X162154414Y-99959265D02*
X162130604Y-100054503D01*
X162130604Y-100054503D02*
X162106795Y-100102122D01*
X162106795Y-100102122D02*
X162082985Y-100125932D01*
X162082985Y-100125932D02*
X162035366Y-100149741D01*
X162035366Y-100149741D02*
X161987747Y-100149741D01*
X161987747Y-100149741D02*
X161940128Y-100125932D01*
X161940128Y-100125932D02*
X161916319Y-100102122D01*
X161916319Y-100102122D02*
X161892509Y-100054503D01*
X161892509Y-100054503D02*
X161892509Y-99935456D01*
X161892509Y-99935456D02*
X161916319Y-99864027D01*
X162392509Y-99649742D02*
X161892509Y-99649742D01*
X161892509Y-99649742D02*
X161892509Y-99530694D01*
X161892509Y-99530694D02*
X161916319Y-99459266D01*
X161916319Y-99459266D02*
X161963938Y-99411647D01*
X161963938Y-99411647D02*
X162011557Y-99387837D01*
X162011557Y-99387837D02*
X162106795Y-99364028D01*
X162106795Y-99364028D02*
X162178223Y-99364028D01*
X162178223Y-99364028D02*
X162273461Y-99387837D01*
X162273461Y-99387837D02*
X162321080Y-99411647D01*
X162321080Y-99411647D02*
X162368700Y-99459266D01*
X162368700Y-99459266D02*
X162392509Y-99530694D01*
X162392509Y-99530694D02*
X162392509Y-99649742D01*
X162249652Y-99173551D02*
X162249652Y-98935456D01*
X162392509Y-99221170D02*
X161892509Y-99054504D01*
X161892509Y-99054504D02*
X162392509Y-98887837D01*
D10*
X162482433Y-104670933D02*
X161782433Y-104670933D01*
X161849100Y-104370933D02*
X161815766Y-104337600D01*
X161815766Y-104337600D02*
X161782433Y-104270933D01*
X161782433Y-104270933D02*
X161782433Y-104104267D01*
X161782433Y-104104267D02*
X161815766Y-104037600D01*
X161815766Y-104037600D02*
X161849100Y-104004267D01*
X161849100Y-104004267D02*
X161915766Y-103970933D01*
X161915766Y-103970933D02*
X161982433Y-103970933D01*
X161982433Y-103970933D02*
X162082433Y-104004267D01*
X162082433Y-104004267D02*
X162482433Y-104404267D01*
X162482433Y-104404267D02*
X162482433Y-103970933D01*
X162415766Y-103270933D02*
X162449100Y-103304266D01*
X162449100Y-103304266D02*
X162482433Y-103404266D01*
X162482433Y-103404266D02*
X162482433Y-103470933D01*
X162482433Y-103470933D02*
X162449100Y-103570933D01*
X162449100Y-103570933D02*
X162382433Y-103637600D01*
X162382433Y-103637600D02*
X162315766Y-103670933D01*
X162315766Y-103670933D02*
X162182433Y-103704266D01*
X162182433Y-103704266D02*
X162082433Y-103704266D01*
X162082433Y-103704266D02*
X161949100Y-103670933D01*
X161949100Y-103670933D02*
X161882433Y-103637600D01*
X161882433Y-103637600D02*
X161815766Y-103570933D01*
X161815766Y-103570933D02*
X161782433Y-103470933D01*
X161782433Y-103470933D02*
X161782433Y-103404266D01*
X161782433Y-103404266D02*
X161815766Y-103304266D01*
X161815766Y-103304266D02*
X161849100Y-103270933D01*
D11*
X136267752Y-104724309D02*
X136267752Y-104224309D01*
X136267752Y-104224309D02*
X136386800Y-104224309D01*
X136386800Y-104224309D02*
X136458228Y-104248119D01*
X136458228Y-104248119D02*
X136505847Y-104295738D01*
X136505847Y-104295738D02*
X136529657Y-104343357D01*
X136529657Y-104343357D02*
X136553466Y-104438595D01*
X136553466Y-104438595D02*
X136553466Y-104510023D01*
X136553466Y-104510023D02*
X136529657Y-104605261D01*
X136529657Y-104605261D02*
X136505847Y-104652880D01*
X136505847Y-104652880D02*
X136458228Y-104700500D01*
X136458228Y-104700500D02*
X136386800Y-104724309D01*
X136386800Y-104724309D02*
X136267752Y-104724309D01*
X136982038Y-104224309D02*
X136886800Y-104224309D01*
X136886800Y-104224309D02*
X136839181Y-104248119D01*
X136839181Y-104248119D02*
X136815371Y-104271928D01*
X136815371Y-104271928D02*
X136767752Y-104343357D01*
X136767752Y-104343357D02*
X136743943Y-104438595D01*
X136743943Y-104438595D02*
X136743943Y-104629071D01*
X136743943Y-104629071D02*
X136767752Y-104676690D01*
X136767752Y-104676690D02*
X136791562Y-104700500D01*
X136791562Y-104700500D02*
X136839181Y-104724309D01*
X136839181Y-104724309D02*
X136934419Y-104724309D01*
X136934419Y-104724309D02*
X136982038Y-104700500D01*
X136982038Y-104700500D02*
X137005847Y-104676690D01*
X137005847Y-104676690D02*
X137029657Y-104629071D01*
X137029657Y-104629071D02*
X137029657Y-104510023D01*
X137029657Y-104510023D02*
X137005847Y-104462404D01*
X137005847Y-104462404D02*
X136982038Y-104438595D01*
X136982038Y-104438595D02*
X136934419Y-104414785D01*
X136934419Y-104414785D02*
X136839181Y-104414785D01*
X136839181Y-104414785D02*
X136791562Y-104438595D01*
X136791562Y-104438595D02*
X136767752Y-104462404D01*
X136767752Y-104462404D02*
X136743943Y-104510023D01*
X156365466Y-104724309D02*
X156198800Y-104486214D01*
X156079752Y-104724309D02*
X156079752Y-104224309D01*
X156079752Y-104224309D02*
X156270228Y-104224309D01*
X156270228Y-104224309D02*
X156317847Y-104248119D01*
X156317847Y-104248119D02*
X156341657Y-104271928D01*
X156341657Y-104271928D02*
X156365466Y-104319547D01*
X156365466Y-104319547D02*
X156365466Y-104390976D01*
X156365466Y-104390976D02*
X156341657Y-104438595D01*
X156341657Y-104438595D02*
X156317847Y-104462404D01*
X156317847Y-104462404D02*
X156270228Y-104486214D01*
X156270228Y-104486214D02*
X156079752Y-104486214D01*
X156532133Y-104224309D02*
X156865466Y-104724309D01*
X156865466Y-104224309D02*
X156532133Y-104724309D01*
X138807752Y-104724309D02*
X138807752Y-104224309D01*
X138807752Y-104224309D02*
X138926800Y-104224309D01*
X138926800Y-104224309D02*
X138998228Y-104248119D01*
X138998228Y-104248119D02*
X139045847Y-104295738D01*
X139045847Y-104295738D02*
X139069657Y-104343357D01*
X139069657Y-104343357D02*
X139093466Y-104438595D01*
X139093466Y-104438595D02*
X139093466Y-104510023D01*
X139093466Y-104510023D02*
X139069657Y-104605261D01*
X139069657Y-104605261D02*
X139045847Y-104652880D01*
X139045847Y-104652880D02*
X138998228Y-104700500D01*
X138998228Y-104700500D02*
X138926800Y-104724309D01*
X138926800Y-104724309D02*
X138807752Y-104724309D01*
X139260133Y-104224309D02*
X139593466Y-104224309D01*
X139593466Y-104224309D02*
X139379181Y-104724309D01*
X158607848Y-104224309D02*
X158893562Y-104224309D01*
X158750705Y-104724309D02*
X158750705Y-104224309D01*
X159012609Y-104224309D02*
X159345942Y-104724309D01*
X159345942Y-104224309D02*
X159012609Y-104724309D01*
X131187752Y-104724309D02*
X131187752Y-104224309D01*
X131187752Y-104224309D02*
X131306800Y-104224309D01*
X131306800Y-104224309D02*
X131378228Y-104248119D01*
X131378228Y-104248119D02*
X131425847Y-104295738D01*
X131425847Y-104295738D02*
X131449657Y-104343357D01*
X131449657Y-104343357D02*
X131473466Y-104438595D01*
X131473466Y-104438595D02*
X131473466Y-104510023D01*
X131473466Y-104510023D02*
X131449657Y-104605261D01*
X131449657Y-104605261D02*
X131425847Y-104652880D01*
X131425847Y-104652880D02*
X131378228Y-104700500D01*
X131378228Y-104700500D02*
X131306800Y-104724309D01*
X131306800Y-104724309D02*
X131187752Y-104724309D01*
X131902038Y-104390976D02*
X131902038Y-104724309D01*
X131782990Y-104200500D02*
X131663943Y-104557642D01*
X131663943Y-104557642D02*
X131973466Y-104557642D01*
D10*
X148701433Y-107898266D02*
X149268100Y-107898266D01*
X149268100Y-107898266D02*
X149334766Y-107864933D01*
X149334766Y-107864933D02*
X149368100Y-107831599D01*
X149368100Y-107831599D02*
X149401433Y-107764933D01*
X149401433Y-107764933D02*
X149401433Y-107631599D01*
X149401433Y-107631599D02*
X149368100Y-107564933D01*
X149368100Y-107564933D02*
X149334766Y-107531599D01*
X149334766Y-107531599D02*
X149268100Y-107498266D01*
X149268100Y-107498266D02*
X148701433Y-107498266D01*
X149201433Y-107198266D02*
X149201433Y-106864933D01*
X149401433Y-107264933D02*
X148701433Y-107031600D01*
X148701433Y-107031600D02*
X149401433Y-106798266D01*
X149401433Y-106164933D02*
X149068100Y-106398266D01*
X149401433Y-106564933D02*
X148701433Y-106564933D01*
X148701433Y-106564933D02*
X148701433Y-106298266D01*
X148701433Y-106298266D02*
X148734766Y-106231600D01*
X148734766Y-106231600D02*
X148768100Y-106198266D01*
X148768100Y-106198266D02*
X148834766Y-106164933D01*
X148834766Y-106164933D02*
X148934766Y-106164933D01*
X148934766Y-106164933D02*
X149001433Y-106198266D01*
X149001433Y-106198266D02*
X149034766Y-106231600D01*
X149034766Y-106231600D02*
X149068100Y-106298266D01*
X149068100Y-106298266D02*
X149068100Y-106564933D01*
X148701433Y-105964933D02*
X148701433Y-105564933D01*
X149401433Y-105764933D02*
X148701433Y-105764933D01*
D11*
X150837085Y-99390309D02*
X150837085Y-98890309D01*
X150837085Y-98890309D02*
X151003752Y-99247452D01*
X151003752Y-99247452D02*
X151170418Y-98890309D01*
X151170418Y-98890309D02*
X151170418Y-99390309D01*
X151408514Y-99390309D02*
X151408514Y-98890309D01*
X151622800Y-99366500D02*
X151694228Y-99390309D01*
X151694228Y-99390309D02*
X151813276Y-99390309D01*
X151813276Y-99390309D02*
X151860895Y-99366500D01*
X151860895Y-99366500D02*
X151884704Y-99342690D01*
X151884704Y-99342690D02*
X151908514Y-99295071D01*
X151908514Y-99295071D02*
X151908514Y-99247452D01*
X151908514Y-99247452D02*
X151884704Y-99199833D01*
X151884704Y-99199833D02*
X151860895Y-99176023D01*
X151860895Y-99176023D02*
X151813276Y-99152214D01*
X151813276Y-99152214D02*
X151718038Y-99128404D01*
X151718038Y-99128404D02*
X151670419Y-99104595D01*
X151670419Y-99104595D02*
X151646609Y-99080785D01*
X151646609Y-99080785D02*
X151622800Y-99033166D01*
X151622800Y-99033166D02*
X151622800Y-98985547D01*
X151622800Y-98985547D02*
X151646609Y-98937928D01*
X151646609Y-98937928D02*
X151670419Y-98914119D01*
X151670419Y-98914119D02*
X151718038Y-98890309D01*
X151718038Y-98890309D02*
X151837085Y-98890309D01*
X151837085Y-98890309D02*
X151908514Y-98914119D01*
X152218037Y-98890309D02*
X152313275Y-98890309D01*
X152313275Y-98890309D02*
X152360894Y-98914119D01*
X152360894Y-98914119D02*
X152408513Y-98961738D01*
X152408513Y-98961738D02*
X152432323Y-99056976D01*
X152432323Y-99056976D02*
X152432323Y-99223642D01*
X152432323Y-99223642D02*
X152408513Y-99318880D01*
X152408513Y-99318880D02*
X152360894Y-99366500D01*
X152360894Y-99366500D02*
X152313275Y-99390309D01*
X152313275Y-99390309D02*
X152218037Y-99390309D01*
X152218037Y-99390309D02*
X152170418Y-99366500D01*
X152170418Y-99366500D02*
X152122799Y-99318880D01*
X152122799Y-99318880D02*
X152098990Y-99223642D01*
X152098990Y-99223642D02*
X152098990Y-99056976D01*
X152098990Y-99056976D02*
X152122799Y-98961738D01*
X152122799Y-98961738D02*
X152170418Y-98914119D01*
X152170418Y-98914119D02*
X152218037Y-98890309D01*
X152869085Y-100787309D02*
X152869085Y-100287309D01*
X152869085Y-100287309D02*
X153035752Y-100644452D01*
X153035752Y-100644452D02*
X153202418Y-100287309D01*
X153202418Y-100287309D02*
X153202418Y-100787309D01*
X153535752Y-100287309D02*
X153630990Y-100287309D01*
X153630990Y-100287309D02*
X153678609Y-100311119D01*
X153678609Y-100311119D02*
X153726228Y-100358738D01*
X153726228Y-100358738D02*
X153750038Y-100453976D01*
X153750038Y-100453976D02*
X153750038Y-100620642D01*
X153750038Y-100620642D02*
X153726228Y-100715880D01*
X153726228Y-100715880D02*
X153678609Y-100763500D01*
X153678609Y-100763500D02*
X153630990Y-100787309D01*
X153630990Y-100787309D02*
X153535752Y-100787309D01*
X153535752Y-100787309D02*
X153488133Y-100763500D01*
X153488133Y-100763500D02*
X153440514Y-100715880D01*
X153440514Y-100715880D02*
X153416705Y-100620642D01*
X153416705Y-100620642D02*
X153416705Y-100453976D01*
X153416705Y-100453976D02*
X153440514Y-100358738D01*
X153440514Y-100358738D02*
X153488133Y-100311119D01*
X153488133Y-100311119D02*
X153535752Y-100287309D01*
X153940515Y-100763500D02*
X154011943Y-100787309D01*
X154011943Y-100787309D02*
X154130991Y-100787309D01*
X154130991Y-100787309D02*
X154178610Y-100763500D01*
X154178610Y-100763500D02*
X154202419Y-100739690D01*
X154202419Y-100739690D02*
X154226229Y-100692071D01*
X154226229Y-100692071D02*
X154226229Y-100644452D01*
X154226229Y-100644452D02*
X154202419Y-100596833D01*
X154202419Y-100596833D02*
X154178610Y-100573023D01*
X154178610Y-100573023D02*
X154130991Y-100549214D01*
X154130991Y-100549214D02*
X154035753Y-100525404D01*
X154035753Y-100525404D02*
X153988134Y-100501595D01*
X153988134Y-100501595D02*
X153964324Y-100477785D01*
X153964324Y-100477785D02*
X153940515Y-100430166D01*
X153940515Y-100430166D02*
X153940515Y-100382547D01*
X153940515Y-100382547D02*
X153964324Y-100334928D01*
X153964324Y-100334928D02*
X153988134Y-100311119D01*
X153988134Y-100311119D02*
X154035753Y-100287309D01*
X154035753Y-100287309D02*
X154154800Y-100287309D01*
X154154800Y-100287309D02*
X154226229Y-100311119D01*
X154440514Y-100787309D02*
X154440514Y-100287309D01*
X162368700Y-102852456D02*
X162392509Y-102781028D01*
X162392509Y-102781028D02*
X162392509Y-102661980D01*
X162392509Y-102661980D02*
X162368700Y-102614361D01*
X162368700Y-102614361D02*
X162344890Y-102590552D01*
X162344890Y-102590552D02*
X162297271Y-102566742D01*
X162297271Y-102566742D02*
X162249652Y-102566742D01*
X162249652Y-102566742D02*
X162202033Y-102590552D01*
X162202033Y-102590552D02*
X162178223Y-102614361D01*
X162178223Y-102614361D02*
X162154414Y-102661980D01*
X162154414Y-102661980D02*
X162130604Y-102757218D01*
X162130604Y-102757218D02*
X162106795Y-102804837D01*
X162106795Y-102804837D02*
X162082985Y-102828647D01*
X162082985Y-102828647D02*
X162035366Y-102852456D01*
X162035366Y-102852456D02*
X161987747Y-102852456D01*
X161987747Y-102852456D02*
X161940128Y-102828647D01*
X161940128Y-102828647D02*
X161916319Y-102804837D01*
X161916319Y-102804837D02*
X161892509Y-102757218D01*
X161892509Y-102757218D02*
X161892509Y-102638171D01*
X161892509Y-102638171D02*
X161916319Y-102566742D01*
X162344890Y-102066743D02*
X162368700Y-102090552D01*
X162368700Y-102090552D02*
X162392509Y-102161981D01*
X162392509Y-102161981D02*
X162392509Y-102209600D01*
X162392509Y-102209600D02*
X162368700Y-102281028D01*
X162368700Y-102281028D02*
X162321080Y-102328647D01*
X162321080Y-102328647D02*
X162273461Y-102352457D01*
X162273461Y-102352457D02*
X162178223Y-102376266D01*
X162178223Y-102376266D02*
X162106795Y-102376266D01*
X162106795Y-102376266D02*
X162011557Y-102352457D01*
X162011557Y-102352457D02*
X161963938Y-102328647D01*
X161963938Y-102328647D02*
X161916319Y-102281028D01*
X161916319Y-102281028D02*
X161892509Y-102209600D01*
X161892509Y-102209600D02*
X161892509Y-102161981D01*
X161892509Y-102161981D02*
X161916319Y-102090552D01*
X161916319Y-102090552D02*
X161940128Y-102066743D01*
X162392509Y-101852457D02*
X161892509Y-101852457D01*
X162392509Y-101566743D02*
X162106795Y-101781028D01*
X161892509Y-101566743D02*
X162178223Y-101852457D01*
D10*
X139121922Y-83503733D02*
X139455255Y-83503733D01*
X139055255Y-83703733D02*
X139288589Y-83003733D01*
X139288589Y-83003733D02*
X139521922Y-83703733D01*
X139655255Y-83003733D02*
X140055255Y-83003733D01*
X139855255Y-83703733D02*
X139855255Y-83003733D01*
X140288588Y-83703733D02*
X140288588Y-83003733D01*
X140288588Y-83003733D02*
X140521922Y-83503733D01*
X140521922Y-83503733D02*
X140755255Y-83003733D01*
X140755255Y-83003733D02*
X140755255Y-83703733D01*
X141088588Y-83337066D02*
X141321922Y-83337066D01*
X141421922Y-83703733D02*
X141088588Y-83703733D01*
X141088588Y-83703733D02*
X141088588Y-83003733D01*
X141088588Y-83003733D02*
X141421922Y-83003733D01*
X142088588Y-83037066D02*
X142021921Y-83003733D01*
X142021921Y-83003733D02*
X141921921Y-83003733D01*
X141921921Y-83003733D02*
X141821921Y-83037066D01*
X141821921Y-83037066D02*
X141755255Y-83103733D01*
X141755255Y-83103733D02*
X141721921Y-83170400D01*
X141721921Y-83170400D02*
X141688588Y-83303733D01*
X141688588Y-83303733D02*
X141688588Y-83403733D01*
X141688588Y-83403733D02*
X141721921Y-83537066D01*
X141721921Y-83537066D02*
X141755255Y-83603733D01*
X141755255Y-83603733D02*
X141821921Y-83670400D01*
X141821921Y-83670400D02*
X141921921Y-83703733D01*
X141921921Y-83703733D02*
X141988588Y-83703733D01*
X141988588Y-83703733D02*
X142088588Y-83670400D01*
X142088588Y-83670400D02*
X142121921Y-83637066D01*
X142121921Y-83637066D02*
X142121921Y-83403733D01*
X142121921Y-83403733D02*
X141988588Y-83403733D01*
X142388588Y-83503733D02*
X142721921Y-83503733D01*
X142321921Y-83703733D02*
X142555255Y-83003733D01*
X142555255Y-83003733D02*
X142788588Y-83703733D01*
X142955255Y-83003733D02*
X143388588Y-83003733D01*
X143388588Y-83003733D02*
X143155255Y-83270400D01*
X143155255Y-83270400D02*
X143255255Y-83270400D01*
X143255255Y-83270400D02*
X143321921Y-83303733D01*
X143321921Y-83303733D02*
X143355255Y-83337066D01*
X143355255Y-83337066D02*
X143388588Y-83403733D01*
X143388588Y-83403733D02*
X143388588Y-83570400D01*
X143388588Y-83570400D02*
X143355255Y-83637066D01*
X143355255Y-83637066D02*
X143321921Y-83670400D01*
X143321921Y-83670400D02*
X143255255Y-83703733D01*
X143255255Y-83703733D02*
X143055255Y-83703733D01*
X143055255Y-83703733D02*
X142988588Y-83670400D01*
X142988588Y-83670400D02*
X142955255Y-83637066D01*
X143655255Y-83070400D02*
X143688588Y-83037066D01*
X143688588Y-83037066D02*
X143755255Y-83003733D01*
X143755255Y-83003733D02*
X143921922Y-83003733D01*
X143921922Y-83003733D02*
X143988588Y-83037066D01*
X143988588Y-83037066D02*
X144021922Y-83070400D01*
X144021922Y-83070400D02*
X144055255Y-83137066D01*
X144055255Y-83137066D02*
X144055255Y-83203733D01*
X144055255Y-83203733D02*
X144021922Y-83303733D01*
X144021922Y-83303733D02*
X143621922Y-83703733D01*
X143621922Y-83703733D02*
X144055255Y-83703733D01*
X144455255Y-83303733D02*
X144388589Y-83270400D01*
X144388589Y-83270400D02*
X144355255Y-83237066D01*
X144355255Y-83237066D02*
X144321922Y-83170400D01*
X144321922Y-83170400D02*
X144321922Y-83137066D01*
X144321922Y-83137066D02*
X144355255Y-83070400D01*
X144355255Y-83070400D02*
X144388589Y-83037066D01*
X144388589Y-83037066D02*
X144455255Y-83003733D01*
X144455255Y-83003733D02*
X144588589Y-83003733D01*
X144588589Y-83003733D02*
X144655255Y-83037066D01*
X144655255Y-83037066D02*
X144688589Y-83070400D01*
X144688589Y-83070400D02*
X144721922Y-83137066D01*
X144721922Y-83137066D02*
X144721922Y-83170400D01*
X144721922Y-83170400D02*
X144688589Y-83237066D01*
X144688589Y-83237066D02*
X144655255Y-83270400D01*
X144655255Y-83270400D02*
X144588589Y-83303733D01*
X144588589Y-83303733D02*
X144455255Y-83303733D01*
X144455255Y-83303733D02*
X144388589Y-83337066D01*
X144388589Y-83337066D02*
X144355255Y-83370400D01*
X144355255Y-83370400D02*
X144321922Y-83437066D01*
X144321922Y-83437066D02*
X144321922Y-83570400D01*
X144321922Y-83570400D02*
X144355255Y-83637066D01*
X144355255Y-83637066D02*
X144388589Y-83670400D01*
X144388589Y-83670400D02*
X144455255Y-83703733D01*
X144455255Y-83703733D02*
X144588589Y-83703733D01*
X144588589Y-83703733D02*
X144655255Y-83670400D01*
X144655255Y-83670400D02*
X144688589Y-83637066D01*
X144688589Y-83637066D02*
X144721922Y-83570400D01*
X144721922Y-83570400D02*
X144721922Y-83437066D01*
X144721922Y-83437066D02*
X144688589Y-83370400D01*
X144688589Y-83370400D02*
X144655255Y-83337066D01*
X144655255Y-83337066D02*
X144588589Y-83303733D01*
X145021922Y-83703733D02*
X145021922Y-83003733D01*
X145021922Y-83003733D02*
X145288589Y-83003733D01*
X145288589Y-83003733D02*
X145355256Y-83037066D01*
X145355256Y-83037066D02*
X145388589Y-83070400D01*
X145388589Y-83070400D02*
X145421922Y-83137066D01*
X145421922Y-83137066D02*
X145421922Y-83237066D01*
X145421922Y-83237066D02*
X145388589Y-83303733D01*
X145388589Y-83303733D02*
X145355256Y-83337066D01*
X145355256Y-83337066D02*
X145288589Y-83370400D01*
X145288589Y-83370400D02*
X145021922Y-83370400D01*
X145721922Y-83437066D02*
X146255256Y-83437066D01*
X146555256Y-83503733D02*
X146888589Y-83503733D01*
X146488589Y-83703733D02*
X146721923Y-83003733D01*
X146721923Y-83003733D02*
X146955256Y-83703733D01*
X147188589Y-83003733D02*
X147188589Y-83570400D01*
X147188589Y-83570400D02*
X147221923Y-83637066D01*
X147221923Y-83637066D02*
X147255256Y-83670400D01*
X147255256Y-83670400D02*
X147321923Y-83703733D01*
X147321923Y-83703733D02*
X147455256Y-83703733D01*
X147455256Y-83703733D02*
X147521923Y-83670400D01*
X147521923Y-83670400D02*
X147555256Y-83637066D01*
X147555256Y-83637066D02*
X147588589Y-83570400D01*
X147588589Y-83570400D02*
X147588589Y-83003733D01*
D11*
X144002847Y-104248119D02*
X143955228Y-104224309D01*
X143955228Y-104224309D02*
X143883799Y-104224309D01*
X143883799Y-104224309D02*
X143812371Y-104248119D01*
X143812371Y-104248119D02*
X143764752Y-104295738D01*
X143764752Y-104295738D02*
X143740942Y-104343357D01*
X143740942Y-104343357D02*
X143717133Y-104438595D01*
X143717133Y-104438595D02*
X143717133Y-104510023D01*
X143717133Y-104510023D02*
X143740942Y-104605261D01*
X143740942Y-104605261D02*
X143764752Y-104652880D01*
X143764752Y-104652880D02*
X143812371Y-104700500D01*
X143812371Y-104700500D02*
X143883799Y-104724309D01*
X143883799Y-104724309D02*
X143931418Y-104724309D01*
X143931418Y-104724309D02*
X144002847Y-104700500D01*
X144002847Y-104700500D02*
X144026656Y-104676690D01*
X144026656Y-104676690D02*
X144026656Y-104510023D01*
X144026656Y-104510023D02*
X143931418Y-104510023D01*
X144240942Y-104724309D02*
X144240942Y-104224309D01*
X144240942Y-104224309D02*
X144526656Y-104724309D01*
X144526656Y-104724309D02*
X144526656Y-104224309D01*
X144764752Y-104724309D02*
X144764752Y-104224309D01*
X144764752Y-104224309D02*
X144883800Y-104224309D01*
X144883800Y-104224309D02*
X144955228Y-104248119D01*
X144955228Y-104248119D02*
X145002847Y-104295738D01*
X145002847Y-104295738D02*
X145026657Y-104343357D01*
X145026657Y-104343357D02*
X145050466Y-104438595D01*
X145050466Y-104438595D02*
X145050466Y-104510023D01*
X145050466Y-104510023D02*
X145026657Y-104605261D01*
X145026657Y-104605261D02*
X145002847Y-104652880D01*
X145002847Y-104652880D02*
X144955228Y-104700500D01*
X144955228Y-104700500D02*
X144883800Y-104724309D01*
X144883800Y-104724309D02*
X144764752Y-104724309D01*
X153115134Y-104224309D02*
X153281800Y-104724309D01*
X153281800Y-104724309D02*
X153448467Y-104224309D01*
X153900847Y-104676690D02*
X153877038Y-104700500D01*
X153877038Y-104700500D02*
X153805609Y-104724309D01*
X153805609Y-104724309D02*
X153757990Y-104724309D01*
X153757990Y-104724309D02*
X153686562Y-104700500D01*
X153686562Y-104700500D02*
X153638943Y-104652880D01*
X153638943Y-104652880D02*
X153615133Y-104605261D01*
X153615133Y-104605261D02*
X153591324Y-104510023D01*
X153591324Y-104510023D02*
X153591324Y-104438595D01*
X153591324Y-104438595D02*
X153615133Y-104343357D01*
X153615133Y-104343357D02*
X153638943Y-104295738D01*
X153638943Y-104295738D02*
X153686562Y-104248119D01*
X153686562Y-104248119D02*
X153757990Y-104224309D01*
X153757990Y-104224309D02*
X153805609Y-104224309D01*
X153805609Y-104224309D02*
X153877038Y-104248119D01*
X153877038Y-104248119D02*
X153900847Y-104271928D01*
X154400847Y-104676690D02*
X154377038Y-104700500D01*
X154377038Y-104700500D02*
X154305609Y-104724309D01*
X154305609Y-104724309D02*
X154257990Y-104724309D01*
X154257990Y-104724309D02*
X154186562Y-104700500D01*
X154186562Y-104700500D02*
X154138943Y-104652880D01*
X154138943Y-104652880D02*
X154115133Y-104605261D01*
X154115133Y-104605261D02*
X154091324Y-104510023D01*
X154091324Y-104510023D02*
X154091324Y-104438595D01*
X154091324Y-104438595D02*
X154115133Y-104343357D01*
X154115133Y-104343357D02*
X154138943Y-104295738D01*
X154138943Y-104295738D02*
X154186562Y-104248119D01*
X154186562Y-104248119D02*
X154257990Y-104224309D01*
X154257990Y-104224309D02*
X154305609Y-104224309D01*
X154305609Y-104224309D02*
X154377038Y-104248119D01*
X154377038Y-104248119D02*
X154400847Y-104271928D01*
D10*
X160323433Y-85843933D02*
X159623433Y-85843933D01*
X160256766Y-85110600D02*
X160290100Y-85143933D01*
X160290100Y-85143933D02*
X160323433Y-85243933D01*
X160323433Y-85243933D02*
X160323433Y-85310600D01*
X160323433Y-85310600D02*
X160290100Y-85410600D01*
X160290100Y-85410600D02*
X160223433Y-85477267D01*
X160223433Y-85477267D02*
X160156766Y-85510600D01*
X160156766Y-85510600D02*
X160023433Y-85543933D01*
X160023433Y-85543933D02*
X159923433Y-85543933D01*
X159923433Y-85543933D02*
X159790100Y-85510600D01*
X159790100Y-85510600D02*
X159723433Y-85477267D01*
X159723433Y-85477267D02*
X159656766Y-85410600D01*
X159656766Y-85410600D02*
X159623433Y-85310600D01*
X159623433Y-85310600D02*
X159623433Y-85243933D01*
X159623433Y-85243933D02*
X159656766Y-85143933D01*
X159656766Y-85143933D02*
X159690100Y-85110600D01*
X160290100Y-84843933D02*
X160323433Y-84743933D01*
X160323433Y-84743933D02*
X160323433Y-84577267D01*
X160323433Y-84577267D02*
X160290100Y-84510600D01*
X160290100Y-84510600D02*
X160256766Y-84477267D01*
X160256766Y-84477267D02*
X160190100Y-84443933D01*
X160190100Y-84443933D02*
X160123433Y-84443933D01*
X160123433Y-84443933D02*
X160056766Y-84477267D01*
X160056766Y-84477267D02*
X160023433Y-84510600D01*
X160023433Y-84510600D02*
X159990100Y-84577267D01*
X159990100Y-84577267D02*
X159956766Y-84710600D01*
X159956766Y-84710600D02*
X159923433Y-84777267D01*
X159923433Y-84777267D02*
X159890100Y-84810600D01*
X159890100Y-84810600D02*
X159823433Y-84843933D01*
X159823433Y-84843933D02*
X159756766Y-84843933D01*
X159756766Y-84843933D02*
X159690100Y-84810600D01*
X159690100Y-84810600D02*
X159656766Y-84777267D01*
X159656766Y-84777267D02*
X159623433Y-84710600D01*
X159623433Y-84710600D02*
X159623433Y-84543933D01*
X159623433Y-84543933D02*
X159656766Y-84443933D01*
X160323433Y-84143933D02*
X159623433Y-84143933D01*
X159623433Y-84143933D02*
X159623433Y-83877266D01*
X159623433Y-83877266D02*
X159656766Y-83810600D01*
X159656766Y-83810600D02*
X159690100Y-83777266D01*
X159690100Y-83777266D02*
X159756766Y-83743933D01*
X159756766Y-83743933D02*
X159856766Y-83743933D01*
X159856766Y-83743933D02*
X159923433Y-83777266D01*
X159923433Y-83777266D02*
X159956766Y-83810600D01*
X159956766Y-83810600D02*
X159990100Y-83877266D01*
X159990100Y-83877266D02*
X159990100Y-84143933D01*
D11*
X126107752Y-104724309D02*
X126107752Y-104224309D01*
X126107752Y-104224309D02*
X126226800Y-104224309D01*
X126226800Y-104224309D02*
X126298228Y-104248119D01*
X126298228Y-104248119D02*
X126345847Y-104295738D01*
X126345847Y-104295738D02*
X126369657Y-104343357D01*
X126369657Y-104343357D02*
X126393466Y-104438595D01*
X126393466Y-104438595D02*
X126393466Y-104510023D01*
X126393466Y-104510023D02*
X126369657Y-104605261D01*
X126369657Y-104605261D02*
X126345847Y-104652880D01*
X126345847Y-104652880D02*
X126298228Y-104700500D01*
X126298228Y-104700500D02*
X126226800Y-104724309D01*
X126226800Y-104724309D02*
X126107752Y-104724309D01*
X126583943Y-104271928D02*
X126607752Y-104248119D01*
X126607752Y-104248119D02*
X126655371Y-104224309D01*
X126655371Y-104224309D02*
X126774419Y-104224309D01*
X126774419Y-104224309D02*
X126822038Y-104248119D01*
X126822038Y-104248119D02*
X126845847Y-104271928D01*
X126845847Y-104271928D02*
X126869657Y-104319547D01*
X126869657Y-104319547D02*
X126869657Y-104367166D01*
X126869657Y-104367166D02*
X126845847Y-104438595D01*
X126845847Y-104438595D02*
X126560133Y-104724309D01*
X126560133Y-104724309D02*
X126869657Y-104724309D01*
X161916319Y-94970552D02*
X161892509Y-95018171D01*
X161892509Y-95018171D02*
X161892509Y-95089600D01*
X161892509Y-95089600D02*
X161916319Y-95161028D01*
X161916319Y-95161028D02*
X161963938Y-95208647D01*
X161963938Y-95208647D02*
X162011557Y-95232457D01*
X162011557Y-95232457D02*
X162106795Y-95256266D01*
X162106795Y-95256266D02*
X162178223Y-95256266D01*
X162178223Y-95256266D02*
X162273461Y-95232457D01*
X162273461Y-95232457D02*
X162321080Y-95208647D01*
X162321080Y-95208647D02*
X162368700Y-95161028D01*
X162368700Y-95161028D02*
X162392509Y-95089600D01*
X162392509Y-95089600D02*
X162392509Y-95041981D01*
X162392509Y-95041981D02*
X162368700Y-94970552D01*
X162368700Y-94970552D02*
X162344890Y-94946743D01*
X162344890Y-94946743D02*
X162178223Y-94946743D01*
X162178223Y-94946743D02*
X162178223Y-95041981D01*
X162392509Y-94732457D02*
X161892509Y-94732457D01*
X161892509Y-94732457D02*
X162392509Y-94446743D01*
X162392509Y-94446743D02*
X161892509Y-94446743D01*
X162392509Y-94208647D02*
X161892509Y-94208647D01*
X161892509Y-94208647D02*
X161892509Y-94089599D01*
X161892509Y-94089599D02*
X161916319Y-94018171D01*
X161916319Y-94018171D02*
X161963938Y-93970552D01*
X161963938Y-93970552D02*
X162011557Y-93946742D01*
X162011557Y-93946742D02*
X162106795Y-93922933D01*
X162106795Y-93922933D02*
X162178223Y-93922933D01*
X162178223Y-93922933D02*
X162273461Y-93946742D01*
X162273461Y-93946742D02*
X162321080Y-93970552D01*
X162321080Y-93970552D02*
X162368700Y-94018171D01*
X162368700Y-94018171D02*
X162392509Y-94089599D01*
X162392509Y-94089599D02*
X162392509Y-94208647D01*
X151348990Y-102057309D02*
X151182324Y-101819214D01*
X151063276Y-102057309D02*
X151063276Y-101557309D01*
X151063276Y-101557309D02*
X151253752Y-101557309D01*
X151253752Y-101557309D02*
X151301371Y-101581119D01*
X151301371Y-101581119D02*
X151325181Y-101604928D01*
X151325181Y-101604928D02*
X151348990Y-101652547D01*
X151348990Y-101652547D02*
X151348990Y-101723976D01*
X151348990Y-101723976D02*
X151325181Y-101771595D01*
X151325181Y-101771595D02*
X151301371Y-101795404D01*
X151301371Y-101795404D02*
X151253752Y-101819214D01*
X151253752Y-101819214D02*
X151063276Y-101819214D01*
X151539467Y-102033500D02*
X151610895Y-102057309D01*
X151610895Y-102057309D02*
X151729943Y-102057309D01*
X151729943Y-102057309D02*
X151777562Y-102033500D01*
X151777562Y-102033500D02*
X151801371Y-102009690D01*
X151801371Y-102009690D02*
X151825181Y-101962071D01*
X151825181Y-101962071D02*
X151825181Y-101914452D01*
X151825181Y-101914452D02*
X151801371Y-101866833D01*
X151801371Y-101866833D02*
X151777562Y-101843023D01*
X151777562Y-101843023D02*
X151729943Y-101819214D01*
X151729943Y-101819214D02*
X151634705Y-101795404D01*
X151634705Y-101795404D02*
X151587086Y-101771595D01*
X151587086Y-101771595D02*
X151563276Y-101747785D01*
X151563276Y-101747785D02*
X151539467Y-101700166D01*
X151539467Y-101700166D02*
X151539467Y-101652547D01*
X151539467Y-101652547D02*
X151563276Y-101604928D01*
X151563276Y-101604928D02*
X151587086Y-101581119D01*
X151587086Y-101581119D02*
X151634705Y-101557309D01*
X151634705Y-101557309D02*
X151753752Y-101557309D01*
X151753752Y-101557309D02*
X151825181Y-101581119D01*
X151968038Y-101557309D02*
X152253752Y-101557309D01*
X152110895Y-102057309D02*
X152110895Y-101557309D01*
X150979943Y-100763500D02*
X151051371Y-100787309D01*
X151051371Y-100787309D02*
X151170419Y-100787309D01*
X151170419Y-100787309D02*
X151218038Y-100763500D01*
X151218038Y-100763500D02*
X151241847Y-100739690D01*
X151241847Y-100739690D02*
X151265657Y-100692071D01*
X151265657Y-100692071D02*
X151265657Y-100644452D01*
X151265657Y-100644452D02*
X151241847Y-100596833D01*
X151241847Y-100596833D02*
X151218038Y-100573023D01*
X151218038Y-100573023D02*
X151170419Y-100549214D01*
X151170419Y-100549214D02*
X151075181Y-100525404D01*
X151075181Y-100525404D02*
X151027562Y-100501595D01*
X151027562Y-100501595D02*
X151003752Y-100477785D01*
X151003752Y-100477785D02*
X150979943Y-100430166D01*
X150979943Y-100430166D02*
X150979943Y-100382547D01*
X150979943Y-100382547D02*
X151003752Y-100334928D01*
X151003752Y-100334928D02*
X151027562Y-100311119D01*
X151027562Y-100311119D02*
X151075181Y-100287309D01*
X151075181Y-100287309D02*
X151194228Y-100287309D01*
X151194228Y-100287309D02*
X151265657Y-100311119D01*
X151765656Y-100739690D02*
X151741847Y-100763500D01*
X151741847Y-100763500D02*
X151670418Y-100787309D01*
X151670418Y-100787309D02*
X151622799Y-100787309D01*
X151622799Y-100787309D02*
X151551371Y-100763500D01*
X151551371Y-100763500D02*
X151503752Y-100715880D01*
X151503752Y-100715880D02*
X151479942Y-100668261D01*
X151479942Y-100668261D02*
X151456133Y-100573023D01*
X151456133Y-100573023D02*
X151456133Y-100501595D01*
X151456133Y-100501595D02*
X151479942Y-100406357D01*
X151479942Y-100406357D02*
X151503752Y-100358738D01*
X151503752Y-100358738D02*
X151551371Y-100311119D01*
X151551371Y-100311119D02*
X151622799Y-100287309D01*
X151622799Y-100287309D02*
X151670418Y-100287309D01*
X151670418Y-100287309D02*
X151741847Y-100311119D01*
X151741847Y-100311119D02*
X151765656Y-100334928D01*
X151979942Y-100787309D02*
X151979942Y-100287309D01*
X152265656Y-100787309D02*
X152051371Y-100501595D01*
X152265656Y-100287309D02*
X151979942Y-100573023D01*
X141347752Y-104724309D02*
X141347752Y-104224309D01*
X141347752Y-104224309D02*
X141466800Y-104224309D01*
X141466800Y-104224309D02*
X141538228Y-104248119D01*
X141538228Y-104248119D02*
X141585847Y-104295738D01*
X141585847Y-104295738D02*
X141609657Y-104343357D01*
X141609657Y-104343357D02*
X141633466Y-104438595D01*
X141633466Y-104438595D02*
X141633466Y-104510023D01*
X141633466Y-104510023D02*
X141609657Y-104605261D01*
X141609657Y-104605261D02*
X141585847Y-104652880D01*
X141585847Y-104652880D02*
X141538228Y-104700500D01*
X141538228Y-104700500D02*
X141466800Y-104724309D01*
X141466800Y-104724309D02*
X141347752Y-104724309D01*
X141919181Y-104438595D02*
X141871562Y-104414785D01*
X141871562Y-104414785D02*
X141847752Y-104390976D01*
X141847752Y-104390976D02*
X141823943Y-104343357D01*
X141823943Y-104343357D02*
X141823943Y-104319547D01*
X141823943Y-104319547D02*
X141847752Y-104271928D01*
X141847752Y-104271928D02*
X141871562Y-104248119D01*
X141871562Y-104248119D02*
X141919181Y-104224309D01*
X141919181Y-104224309D02*
X142014419Y-104224309D01*
X142014419Y-104224309D02*
X142062038Y-104248119D01*
X142062038Y-104248119D02*
X142085847Y-104271928D01*
X142085847Y-104271928D02*
X142109657Y-104319547D01*
X142109657Y-104319547D02*
X142109657Y-104343357D01*
X142109657Y-104343357D02*
X142085847Y-104390976D01*
X142085847Y-104390976D02*
X142062038Y-104414785D01*
X142062038Y-104414785D02*
X142014419Y-104438595D01*
X142014419Y-104438595D02*
X141919181Y-104438595D01*
X141919181Y-104438595D02*
X141871562Y-104462404D01*
X141871562Y-104462404D02*
X141847752Y-104486214D01*
X141847752Y-104486214D02*
X141823943Y-104533833D01*
X141823943Y-104533833D02*
X141823943Y-104629071D01*
X141823943Y-104629071D02*
X141847752Y-104676690D01*
X141847752Y-104676690D02*
X141871562Y-104700500D01*
X141871562Y-104700500D02*
X141919181Y-104724309D01*
X141919181Y-104724309D02*
X142014419Y-104724309D01*
X142014419Y-104724309D02*
X142062038Y-104700500D01*
X142062038Y-104700500D02*
X142085847Y-104676690D01*
X142085847Y-104676690D02*
X142109657Y-104629071D01*
X142109657Y-104629071D02*
X142109657Y-104533833D01*
X142109657Y-104533833D02*
X142085847Y-104486214D01*
X142085847Y-104486214D02*
X142062038Y-104462404D01*
X142062038Y-104462404D02*
X142014419Y-104438595D01*
X146130134Y-104224309D02*
X146296800Y-104724309D01*
X146296800Y-104724309D02*
X146463467Y-104224309D01*
X146915847Y-104676690D02*
X146892038Y-104700500D01*
X146892038Y-104700500D02*
X146820609Y-104724309D01*
X146820609Y-104724309D02*
X146772990Y-104724309D01*
X146772990Y-104724309D02*
X146701562Y-104700500D01*
X146701562Y-104700500D02*
X146653943Y-104652880D01*
X146653943Y-104652880D02*
X146630133Y-104605261D01*
X146630133Y-104605261D02*
X146606324Y-104510023D01*
X146606324Y-104510023D02*
X146606324Y-104438595D01*
X146606324Y-104438595D02*
X146630133Y-104343357D01*
X146630133Y-104343357D02*
X146653943Y-104295738D01*
X146653943Y-104295738D02*
X146701562Y-104248119D01*
X146701562Y-104248119D02*
X146772990Y-104224309D01*
X146772990Y-104224309D02*
X146820609Y-104224309D01*
X146820609Y-104224309D02*
X146892038Y-104248119D01*
X146892038Y-104248119D02*
X146915847Y-104271928D01*
X147415847Y-104676690D02*
X147392038Y-104700500D01*
X147392038Y-104700500D02*
X147320609Y-104724309D01*
X147320609Y-104724309D02*
X147272990Y-104724309D01*
X147272990Y-104724309D02*
X147201562Y-104700500D01*
X147201562Y-104700500D02*
X147153943Y-104652880D01*
X147153943Y-104652880D02*
X147130133Y-104605261D01*
X147130133Y-104605261D02*
X147106324Y-104510023D01*
X147106324Y-104510023D02*
X147106324Y-104438595D01*
X147106324Y-104438595D02*
X147130133Y-104343357D01*
X147130133Y-104343357D02*
X147153943Y-104295738D01*
X147153943Y-104295738D02*
X147201562Y-104248119D01*
X147201562Y-104248119D02*
X147272990Y-104224309D01*
X147272990Y-104224309D02*
X147320609Y-104224309D01*
X147320609Y-104224309D02*
X147392038Y-104248119D01*
X147392038Y-104248119D02*
X147415847Y-104271928D01*
X128647752Y-104724309D02*
X128647752Y-104224309D01*
X128647752Y-104224309D02*
X128766800Y-104224309D01*
X128766800Y-104224309D02*
X128838228Y-104248119D01*
X128838228Y-104248119D02*
X128885847Y-104295738D01*
X128885847Y-104295738D02*
X128909657Y-104343357D01*
X128909657Y-104343357D02*
X128933466Y-104438595D01*
X128933466Y-104438595D02*
X128933466Y-104510023D01*
X128933466Y-104510023D02*
X128909657Y-104605261D01*
X128909657Y-104605261D02*
X128885847Y-104652880D01*
X128885847Y-104652880D02*
X128838228Y-104700500D01*
X128838228Y-104700500D02*
X128766800Y-104724309D01*
X128766800Y-104724309D02*
X128647752Y-104724309D01*
X129100133Y-104224309D02*
X129409657Y-104224309D01*
X129409657Y-104224309D02*
X129242990Y-104414785D01*
X129242990Y-104414785D02*
X129314419Y-104414785D01*
X129314419Y-104414785D02*
X129362038Y-104438595D01*
X129362038Y-104438595D02*
X129385847Y-104462404D01*
X129385847Y-104462404D02*
X129409657Y-104510023D01*
X129409657Y-104510023D02*
X129409657Y-104629071D01*
X129409657Y-104629071D02*
X129385847Y-104676690D01*
X129385847Y-104676690D02*
X129362038Y-104700500D01*
X129362038Y-104700500D02*
X129314419Y-104724309D01*
X129314419Y-104724309D02*
X129171562Y-104724309D01*
X129171562Y-104724309D02*
X129123943Y-104700500D01*
X129123943Y-104700500D02*
X129100133Y-104676690D01*
X161765509Y-97796265D02*
X162265509Y-97629599D01*
X162265509Y-97629599D02*
X161765509Y-97462932D01*
X162217890Y-97010552D02*
X162241700Y-97034361D01*
X162241700Y-97034361D02*
X162265509Y-97105790D01*
X162265509Y-97105790D02*
X162265509Y-97153409D01*
X162265509Y-97153409D02*
X162241700Y-97224837D01*
X162241700Y-97224837D02*
X162194080Y-97272456D01*
X162194080Y-97272456D02*
X162146461Y-97296266D01*
X162146461Y-97296266D02*
X162051223Y-97320075D01*
X162051223Y-97320075D02*
X161979795Y-97320075D01*
X161979795Y-97320075D02*
X161884557Y-97296266D01*
X161884557Y-97296266D02*
X161836938Y-97272456D01*
X161836938Y-97272456D02*
X161789319Y-97224837D01*
X161789319Y-97224837D02*
X161765509Y-97153409D01*
X161765509Y-97153409D02*
X161765509Y-97105790D01*
X161765509Y-97105790D02*
X161789319Y-97034361D01*
X161789319Y-97034361D02*
X161813128Y-97010552D01*
X162217890Y-96510552D02*
X162241700Y-96534361D01*
X162241700Y-96534361D02*
X162265509Y-96605790D01*
X162265509Y-96605790D02*
X162265509Y-96653409D01*
X162265509Y-96653409D02*
X162241700Y-96724837D01*
X162241700Y-96724837D02*
X162194080Y-96772456D01*
X162194080Y-96772456D02*
X162146461Y-96796266D01*
X162146461Y-96796266D02*
X162051223Y-96820075D01*
X162051223Y-96820075D02*
X161979795Y-96820075D01*
X161979795Y-96820075D02*
X161884557Y-96796266D01*
X161884557Y-96796266D02*
X161836938Y-96772456D01*
X161836938Y-96772456D02*
X161789319Y-96724837D01*
X161789319Y-96724837D02*
X161765509Y-96653409D01*
X161765509Y-96653409D02*
X161765509Y-96605790D01*
X161765509Y-96605790D02*
X161789319Y-96534361D01*
X161789319Y-96534361D02*
X161813128Y-96510552D01*
X153273847Y-101581119D02*
X153226228Y-101557309D01*
X153226228Y-101557309D02*
X153154799Y-101557309D01*
X153154799Y-101557309D02*
X153083371Y-101581119D01*
X153083371Y-101581119D02*
X153035752Y-101628738D01*
X153035752Y-101628738D02*
X153011942Y-101676357D01*
X153011942Y-101676357D02*
X152988133Y-101771595D01*
X152988133Y-101771595D02*
X152988133Y-101843023D01*
X152988133Y-101843023D02*
X153011942Y-101938261D01*
X153011942Y-101938261D02*
X153035752Y-101985880D01*
X153035752Y-101985880D02*
X153083371Y-102033500D01*
X153083371Y-102033500D02*
X153154799Y-102057309D01*
X153154799Y-102057309D02*
X153202418Y-102057309D01*
X153202418Y-102057309D02*
X153273847Y-102033500D01*
X153273847Y-102033500D02*
X153297656Y-102009690D01*
X153297656Y-102009690D02*
X153297656Y-101843023D01*
X153297656Y-101843023D02*
X153202418Y-101843023D01*
X153511942Y-102057309D02*
X153511942Y-101557309D01*
X153511942Y-101557309D02*
X153797656Y-102057309D01*
X153797656Y-102057309D02*
X153797656Y-101557309D01*
X154035752Y-102057309D02*
X154035752Y-101557309D01*
X154035752Y-101557309D02*
X154154800Y-101557309D01*
X154154800Y-101557309D02*
X154226228Y-101581119D01*
X154226228Y-101581119D02*
X154273847Y-101628738D01*
X154273847Y-101628738D02*
X154297657Y-101676357D01*
X154297657Y-101676357D02*
X154321466Y-101771595D01*
X154321466Y-101771595D02*
X154321466Y-101843023D01*
X154321466Y-101843023D02*
X154297657Y-101938261D01*
X154297657Y-101938261D02*
X154273847Y-101985880D01*
X154273847Y-101985880D02*
X154226228Y-102033500D01*
X154226228Y-102033500D02*
X154154800Y-102057309D01*
X154154800Y-102057309D02*
X154035752Y-102057309D01*
D10*
X157983133Y-86586566D02*
X157949800Y-86619900D01*
X157949800Y-86619900D02*
X157849800Y-86653233D01*
X157849800Y-86653233D02*
X157783133Y-86653233D01*
X157783133Y-86653233D02*
X157683133Y-86619900D01*
X157683133Y-86619900D02*
X157616467Y-86553233D01*
X157616467Y-86553233D02*
X157583133Y-86486566D01*
X157583133Y-86486566D02*
X157549800Y-86353233D01*
X157549800Y-86353233D02*
X157549800Y-86253233D01*
X157549800Y-86253233D02*
X157583133Y-86119900D01*
X157583133Y-86119900D02*
X157616467Y-86053233D01*
X157616467Y-86053233D02*
X157683133Y-85986566D01*
X157683133Y-85986566D02*
X157783133Y-85953233D01*
X157783133Y-85953233D02*
X157849800Y-85953233D01*
X157849800Y-85953233D02*
X157949800Y-85986566D01*
X157949800Y-85986566D02*
X157983133Y-86019900D01*
X158649800Y-86653233D02*
X158249800Y-86653233D01*
X158449800Y-86653233D02*
X158449800Y-85953233D01*
X158449800Y-85953233D02*
X158383133Y-86053233D01*
X158383133Y-86053233D02*
X158316467Y-86119900D01*
X158316467Y-86119900D02*
X158249800Y-86153233D01*
X162184466Y-92811233D02*
X162184466Y-93311233D01*
X162184466Y-93311233D02*
X162151133Y-93411233D01*
X162151133Y-93411233D02*
X162084466Y-93477900D01*
X162084466Y-93477900D02*
X161984466Y-93511233D01*
X161984466Y-93511233D02*
X161917800Y-93511233D01*
X162884466Y-93511233D02*
X162484466Y-93511233D01*
X162684466Y-93511233D02*
X162684466Y-92811233D01*
X162684466Y-92811233D02*
X162617799Y-92911233D01*
X162617799Y-92911233D02*
X162551133Y-92977900D01*
X162551133Y-92977900D02*
X162484466Y-93011233D01*
X153411133Y-90209233D02*
X153177800Y-89875900D01*
X153011133Y-90209233D02*
X153011133Y-89509233D01*
X153011133Y-89509233D02*
X153277800Y-89509233D01*
X153277800Y-89509233D02*
X153344467Y-89542566D01*
X153344467Y-89542566D02*
X153377800Y-89575900D01*
X153377800Y-89575900D02*
X153411133Y-89642566D01*
X153411133Y-89642566D02*
X153411133Y-89742566D01*
X153411133Y-89742566D02*
X153377800Y-89809233D01*
X153377800Y-89809233D02*
X153344467Y-89842566D01*
X153344467Y-89842566D02*
X153277800Y-89875900D01*
X153277800Y-89875900D02*
X153011133Y-89875900D01*
X153644467Y-89509233D02*
X154111133Y-89509233D01*
X154111133Y-89509233D02*
X153811133Y-90209233D01*
X130859433Y-102199266D02*
X130526100Y-102432599D01*
X130859433Y-102599266D02*
X130159433Y-102599266D01*
X130159433Y-102599266D02*
X130159433Y-102332599D01*
X130159433Y-102332599D02*
X130192766Y-102265933D01*
X130192766Y-102265933D02*
X130226100Y-102232599D01*
X130226100Y-102232599D02*
X130292766Y-102199266D01*
X130292766Y-102199266D02*
X130392766Y-102199266D01*
X130392766Y-102199266D02*
X130459433Y-102232599D01*
X130459433Y-102232599D02*
X130492766Y-102265933D01*
X130492766Y-102265933D02*
X130526100Y-102332599D01*
X130526100Y-102332599D02*
X130526100Y-102599266D01*
X130159433Y-101965933D02*
X130159433Y-101532599D01*
X130159433Y-101532599D02*
X130426100Y-101765933D01*
X130426100Y-101765933D02*
X130426100Y-101665933D01*
X130426100Y-101665933D02*
X130459433Y-101599266D01*
X130459433Y-101599266D02*
X130492766Y-101565933D01*
X130492766Y-101565933D02*
X130559433Y-101532599D01*
X130559433Y-101532599D02*
X130726100Y-101532599D01*
X130726100Y-101532599D02*
X130792766Y-101565933D01*
X130792766Y-101565933D02*
X130826100Y-101599266D01*
X130826100Y-101599266D02*
X130859433Y-101665933D01*
X130859433Y-101665933D02*
X130859433Y-101865933D01*
X130859433Y-101865933D02*
X130826100Y-101932599D01*
X130826100Y-101932599D02*
X130792766Y-101965933D01*
X121344600Y-85373966D02*
X121444600Y-85407300D01*
X121444600Y-85407300D02*
X121477933Y-85440633D01*
X121477933Y-85440633D02*
X121511266Y-85507300D01*
X121511266Y-85507300D02*
X121511266Y-85607300D01*
X121511266Y-85607300D02*
X121477933Y-85673966D01*
X121477933Y-85673966D02*
X121444600Y-85707300D01*
X121444600Y-85707300D02*
X121377933Y-85740633D01*
X121377933Y-85740633D02*
X121111266Y-85740633D01*
X121111266Y-85740633D02*
X121111266Y-85040633D01*
X121111266Y-85040633D02*
X121344600Y-85040633D01*
X121344600Y-85040633D02*
X121411266Y-85073966D01*
X121411266Y-85073966D02*
X121444600Y-85107300D01*
X121444600Y-85107300D02*
X121477933Y-85173966D01*
X121477933Y-85173966D02*
X121477933Y-85240633D01*
X121477933Y-85240633D02*
X121444600Y-85307300D01*
X121444600Y-85307300D02*
X121411266Y-85340633D01*
X121411266Y-85340633D02*
X121344600Y-85373966D01*
X121344600Y-85373966D02*
X121111266Y-85373966D01*
X121711266Y-85040633D02*
X122111266Y-85040633D01*
X121911266Y-85740633D02*
X121911266Y-85040633D01*
X122711266Y-85740633D02*
X122311266Y-85740633D01*
X122511266Y-85740633D02*
X122511266Y-85040633D01*
X122511266Y-85040633D02*
X122444599Y-85140633D01*
X122444599Y-85140633D02*
X122377933Y-85207300D01*
X122377933Y-85207300D02*
X122311266Y-85240633D01*
X127430433Y-102326266D02*
X127097100Y-102559599D01*
X127430433Y-102726266D02*
X126730433Y-102726266D01*
X126730433Y-102726266D02*
X126730433Y-102459599D01*
X126730433Y-102459599D02*
X126763766Y-102392933D01*
X126763766Y-102392933D02*
X126797100Y-102359599D01*
X126797100Y-102359599D02*
X126863766Y-102326266D01*
X126863766Y-102326266D02*
X126963766Y-102326266D01*
X126963766Y-102326266D02*
X127030433Y-102359599D01*
X127030433Y-102359599D02*
X127063766Y-102392933D01*
X127063766Y-102392933D02*
X127097100Y-102459599D01*
X127097100Y-102459599D02*
X127097100Y-102726266D01*
X126797100Y-102059599D02*
X126763766Y-102026266D01*
X126763766Y-102026266D02*
X126730433Y-101959599D01*
X126730433Y-101959599D02*
X126730433Y-101792933D01*
X126730433Y-101792933D02*
X126763766Y-101726266D01*
X126763766Y-101726266D02*
X126797100Y-101692933D01*
X126797100Y-101692933D02*
X126863766Y-101659599D01*
X126863766Y-101659599D02*
X126930433Y-101659599D01*
X126930433Y-101659599D02*
X127030433Y-101692933D01*
X127030433Y-101692933D02*
X127430433Y-102092933D01*
X127430433Y-102092933D02*
X127430433Y-101659599D01*
X121444467Y-93177900D02*
X121444467Y-93511233D01*
X121211133Y-92811233D02*
X121444467Y-93177900D01*
X121444467Y-93177900D02*
X121677800Y-92811233D01*
X121877800Y-92877900D02*
X121911133Y-92844566D01*
X121911133Y-92844566D02*
X121977800Y-92811233D01*
X121977800Y-92811233D02*
X122144467Y-92811233D01*
X122144467Y-92811233D02*
X122211133Y-92844566D01*
X122211133Y-92844566D02*
X122244467Y-92877900D01*
X122244467Y-92877900D02*
X122277800Y-92944566D01*
X122277800Y-92944566D02*
X122277800Y-93011233D01*
X122277800Y-93011233D02*
X122244467Y-93111233D01*
X122244467Y-93111233D02*
X121844467Y-93511233D01*
X121844467Y-93511233D02*
X122277800Y-93511233D01*
X161676466Y-83032233D02*
X161676466Y-83532233D01*
X161676466Y-83532233D02*
X161643133Y-83632233D01*
X161643133Y-83632233D02*
X161576466Y-83698900D01*
X161576466Y-83698900D02*
X161476466Y-83732233D01*
X161476466Y-83732233D02*
X161409800Y-83732233D01*
X162309799Y-83265566D02*
X162309799Y-83732233D01*
X162143133Y-82998900D02*
X161976466Y-83498900D01*
X161976466Y-83498900D02*
X162409799Y-83498900D01*
X144221333Y-79855566D02*
X144188000Y-79888900D01*
X144188000Y-79888900D02*
X144088000Y-79922233D01*
X144088000Y-79922233D02*
X144021333Y-79922233D01*
X144021333Y-79922233D02*
X143921333Y-79888900D01*
X143921333Y-79888900D02*
X143854667Y-79822233D01*
X143854667Y-79822233D02*
X143821333Y-79755566D01*
X143821333Y-79755566D02*
X143788000Y-79622233D01*
X143788000Y-79622233D02*
X143788000Y-79522233D01*
X143788000Y-79522233D02*
X143821333Y-79388900D01*
X143821333Y-79388900D02*
X143854667Y-79322233D01*
X143854667Y-79322233D02*
X143921333Y-79255566D01*
X143921333Y-79255566D02*
X144021333Y-79222233D01*
X144021333Y-79222233D02*
X144088000Y-79222233D01*
X144088000Y-79222233D02*
X144188000Y-79255566D01*
X144188000Y-79255566D02*
X144221333Y-79288900D01*
X144821333Y-79455566D02*
X144821333Y-79922233D01*
X144654667Y-79188900D02*
X144488000Y-79688900D01*
X144488000Y-79688900D02*
X144921333Y-79688900D01*
X163916466Y-106973233D02*
X163916466Y-106273233D01*
X163916466Y-106606566D02*
X164316466Y-106606566D01*
X164316466Y-106973233D02*
X164316466Y-106273233D01*
X164616466Y-106339900D02*
X164649799Y-106306566D01*
X164649799Y-106306566D02*
X164716466Y-106273233D01*
X164716466Y-106273233D02*
X164883133Y-106273233D01*
X164883133Y-106273233D02*
X164949799Y-106306566D01*
X164949799Y-106306566D02*
X164983133Y-106339900D01*
X164983133Y-106339900D02*
X165016466Y-106406566D01*
X165016466Y-106406566D02*
X165016466Y-106473233D01*
X165016466Y-106473233D02*
X164983133Y-106573233D01*
X164983133Y-106573233D02*
X164583133Y-106973233D01*
X164583133Y-106973233D02*
X165016466Y-106973233D01*
X149738466Y-103733233D02*
X149738466Y-104233233D01*
X149738466Y-104233233D02*
X149705133Y-104333233D01*
X149705133Y-104333233D02*
X149638466Y-104399900D01*
X149638466Y-104399900D02*
X149538466Y-104433233D01*
X149538466Y-104433233D02*
X149471800Y-104433233D01*
X150038466Y-103799900D02*
X150071799Y-103766566D01*
X150071799Y-103766566D02*
X150138466Y-103733233D01*
X150138466Y-103733233D02*
X150305133Y-103733233D01*
X150305133Y-103733233D02*
X150371799Y-103766566D01*
X150371799Y-103766566D02*
X150405133Y-103799900D01*
X150405133Y-103799900D02*
X150438466Y-103866566D01*
X150438466Y-103866566D02*
X150438466Y-103933233D01*
X150438466Y-103933233D02*
X150405133Y-104033233D01*
X150405133Y-104033233D02*
X150005133Y-104433233D01*
X150005133Y-104433233D02*
X150438466Y-104433233D01*
X153059633Y-79796233D02*
X153059633Y-79096233D01*
X153059633Y-79096233D02*
X153226300Y-79096233D01*
X153226300Y-79096233D02*
X153326300Y-79129566D01*
X153326300Y-79129566D02*
X153392967Y-79196233D01*
X153392967Y-79196233D02*
X153426300Y-79262900D01*
X153426300Y-79262900D02*
X153459633Y-79396233D01*
X153459633Y-79396233D02*
X153459633Y-79496233D01*
X153459633Y-79496233D02*
X153426300Y-79629566D01*
X153426300Y-79629566D02*
X153392967Y-79696233D01*
X153392967Y-79696233D02*
X153326300Y-79762900D01*
X153326300Y-79762900D02*
X153226300Y-79796233D01*
X153226300Y-79796233D02*
X153059633Y-79796233D01*
X154126300Y-79796233D02*
X153726300Y-79796233D01*
X153926300Y-79796233D02*
X153926300Y-79096233D01*
X153926300Y-79096233D02*
X153859633Y-79196233D01*
X153859633Y-79196233D02*
X153792967Y-79262900D01*
X153792967Y-79262900D02*
X153726300Y-79296233D01*
X153411133Y-93364766D02*
X153377800Y-93398100D01*
X153377800Y-93398100D02*
X153277800Y-93431433D01*
X153277800Y-93431433D02*
X153211133Y-93431433D01*
X153211133Y-93431433D02*
X153111133Y-93398100D01*
X153111133Y-93398100D02*
X153044467Y-93331433D01*
X153044467Y-93331433D02*
X153011133Y-93264766D01*
X153011133Y-93264766D02*
X152977800Y-93131433D01*
X152977800Y-93131433D02*
X152977800Y-93031433D01*
X152977800Y-93031433D02*
X153011133Y-92898100D01*
X153011133Y-92898100D02*
X153044467Y-92831433D01*
X153044467Y-92831433D02*
X153111133Y-92764766D01*
X153111133Y-92764766D02*
X153211133Y-92731433D01*
X153211133Y-92731433D02*
X153277800Y-92731433D01*
X153277800Y-92731433D02*
X153377800Y-92764766D01*
X153377800Y-92764766D02*
X153411133Y-92798100D01*
X153677800Y-92798100D02*
X153711133Y-92764766D01*
X153711133Y-92764766D02*
X153777800Y-92731433D01*
X153777800Y-92731433D02*
X153944467Y-92731433D01*
X153944467Y-92731433D02*
X154011133Y-92764766D01*
X154011133Y-92764766D02*
X154044467Y-92798100D01*
X154044467Y-92798100D02*
X154077800Y-92864766D01*
X154077800Y-92864766D02*
X154077800Y-92931433D01*
X154077800Y-92931433D02*
X154044467Y-93031433D01*
X154044467Y-93031433D02*
X153644467Y-93431433D01*
X153644467Y-93431433D02*
X154077800Y-93431433D01*
X148585133Y-79855566D02*
X148551800Y-79888900D01*
X148551800Y-79888900D02*
X148451800Y-79922233D01*
X148451800Y-79922233D02*
X148385133Y-79922233D01*
X148385133Y-79922233D02*
X148285133Y-79888900D01*
X148285133Y-79888900D02*
X148218467Y-79822233D01*
X148218467Y-79822233D02*
X148185133Y-79755566D01*
X148185133Y-79755566D02*
X148151800Y-79622233D01*
X148151800Y-79622233D02*
X148151800Y-79522233D01*
X148151800Y-79522233D02*
X148185133Y-79388900D01*
X148185133Y-79388900D02*
X148218467Y-79322233D01*
X148218467Y-79322233D02*
X148285133Y-79255566D01*
X148285133Y-79255566D02*
X148385133Y-79222233D01*
X148385133Y-79222233D02*
X148451800Y-79222233D01*
X148451800Y-79222233D02*
X148551800Y-79255566D01*
X148551800Y-79255566D02*
X148585133Y-79288900D01*
X149218467Y-79222233D02*
X148885133Y-79222233D01*
X148885133Y-79222233D02*
X148851800Y-79555566D01*
X148851800Y-79555566D02*
X148885133Y-79522233D01*
X148885133Y-79522233D02*
X148951800Y-79488900D01*
X148951800Y-79488900D02*
X149118467Y-79488900D01*
X149118467Y-79488900D02*
X149185133Y-79522233D01*
X149185133Y-79522233D02*
X149218467Y-79555566D01*
X149218467Y-79555566D02*
X149251800Y-79622233D01*
X149251800Y-79622233D02*
X149251800Y-79788900D01*
X149251800Y-79788900D02*
X149218467Y-79855566D01*
X149218467Y-79855566D02*
X149185133Y-79888900D01*
X149185133Y-79888900D02*
X149118467Y-79922233D01*
X149118467Y-79922233D02*
X148951800Y-79922233D01*
X148951800Y-79922233D02*
X148885133Y-79888900D01*
X148885133Y-79888900D02*
X148851800Y-79855566D01*
X124927466Y-79222233D02*
X124927466Y-79788900D01*
X124927466Y-79788900D02*
X124960800Y-79855566D01*
X124960800Y-79855566D02*
X124994133Y-79888900D01*
X124994133Y-79888900D02*
X125060800Y-79922233D01*
X125060800Y-79922233D02*
X125194133Y-79922233D01*
X125194133Y-79922233D02*
X125260800Y-79888900D01*
X125260800Y-79888900D02*
X125294133Y-79855566D01*
X125294133Y-79855566D02*
X125327466Y-79788900D01*
X125327466Y-79788900D02*
X125327466Y-79222233D01*
X126027466Y-79922233D02*
X125627466Y-79922233D01*
X125827466Y-79922233D02*
X125827466Y-79222233D01*
X125827466Y-79222233D02*
X125760799Y-79322233D01*
X125760799Y-79322233D02*
X125694133Y-79388900D01*
X125694133Y-79388900D02*
X125627466Y-79422233D01*
X118069466Y-105068233D02*
X118069466Y-104368233D01*
X118069466Y-104701566D02*
X118469466Y-104701566D01*
X118469466Y-105068233D02*
X118469466Y-104368233D01*
X119102799Y-104601566D02*
X119102799Y-105068233D01*
X118936133Y-104334900D02*
X118769466Y-104834900D01*
X118769466Y-104834900D02*
X119202799Y-104834900D01*
X130261466Y-93827233D02*
X130261466Y-94393900D01*
X130261466Y-94393900D02*
X130294800Y-94460566D01*
X130294800Y-94460566D02*
X130328133Y-94493900D01*
X130328133Y-94493900D02*
X130394800Y-94527233D01*
X130394800Y-94527233D02*
X130528133Y-94527233D01*
X130528133Y-94527233D02*
X130594800Y-94493900D01*
X130594800Y-94493900D02*
X130628133Y-94460566D01*
X130628133Y-94460566D02*
X130661466Y-94393900D01*
X130661466Y-94393900D02*
X130661466Y-93827233D01*
X131294799Y-94060566D02*
X131294799Y-94527233D01*
X131128133Y-93793900D02*
X130961466Y-94293900D01*
X130961466Y-94293900D02*
X131394799Y-94293900D01*
X158110133Y-93384233D02*
X157876800Y-93050900D01*
X157710133Y-93384233D02*
X157710133Y-92684233D01*
X157710133Y-92684233D02*
X157976800Y-92684233D01*
X157976800Y-92684233D02*
X158043467Y-92717566D01*
X158043467Y-92717566D02*
X158076800Y-92750900D01*
X158076800Y-92750900D02*
X158110133Y-92817566D01*
X158110133Y-92817566D02*
X158110133Y-92917566D01*
X158110133Y-92917566D02*
X158076800Y-92984233D01*
X158076800Y-92984233D02*
X158043467Y-93017566D01*
X158043467Y-93017566D02*
X157976800Y-93050900D01*
X157976800Y-93050900D02*
X157710133Y-93050900D01*
X158710133Y-92684233D02*
X158576800Y-92684233D01*
X158576800Y-92684233D02*
X158510133Y-92717566D01*
X158510133Y-92717566D02*
X158476800Y-92750900D01*
X158476800Y-92750900D02*
X158410133Y-92850900D01*
X158410133Y-92850900D02*
X158376800Y-92984233D01*
X158376800Y-92984233D02*
X158376800Y-93250900D01*
X158376800Y-93250900D02*
X158410133Y-93317566D01*
X158410133Y-93317566D02*
X158443467Y-93350900D01*
X158443467Y-93350900D02*
X158510133Y-93384233D01*
X158510133Y-93384233D02*
X158643467Y-93384233D01*
X158643467Y-93384233D02*
X158710133Y-93350900D01*
X158710133Y-93350900D02*
X158743467Y-93317566D01*
X158743467Y-93317566D02*
X158776800Y-93250900D01*
X158776800Y-93250900D02*
X158776800Y-93084233D01*
X158776800Y-93084233D02*
X158743467Y-93017566D01*
X158743467Y-93017566D02*
X158710133Y-92984233D01*
X158710133Y-92984233D02*
X158643467Y-92950900D01*
X158643467Y-92950900D02*
X158510133Y-92950900D01*
X158510133Y-92950900D02*
X158443467Y-92984233D01*
X158443467Y-92984233D02*
X158410133Y-93017566D01*
X158410133Y-93017566D02*
X158376800Y-93084233D01*
X139771333Y-79855566D02*
X139738000Y-79888900D01*
X139738000Y-79888900D02*
X139638000Y-79922233D01*
X139638000Y-79922233D02*
X139571333Y-79922233D01*
X139571333Y-79922233D02*
X139471333Y-79888900D01*
X139471333Y-79888900D02*
X139404667Y-79822233D01*
X139404667Y-79822233D02*
X139371333Y-79755566D01*
X139371333Y-79755566D02*
X139338000Y-79622233D01*
X139338000Y-79622233D02*
X139338000Y-79522233D01*
X139338000Y-79522233D02*
X139371333Y-79388900D01*
X139371333Y-79388900D02*
X139404667Y-79322233D01*
X139404667Y-79322233D02*
X139471333Y-79255566D01*
X139471333Y-79255566D02*
X139571333Y-79222233D01*
X139571333Y-79222233D02*
X139638000Y-79222233D01*
X139638000Y-79222233D02*
X139738000Y-79255566D01*
X139738000Y-79255566D02*
X139771333Y-79288900D01*
X140004667Y-79222233D02*
X140438000Y-79222233D01*
X140438000Y-79222233D02*
X140204667Y-79488900D01*
X140204667Y-79488900D02*
X140304667Y-79488900D01*
X140304667Y-79488900D02*
X140371333Y-79522233D01*
X140371333Y-79522233D02*
X140404667Y-79555566D01*
X140404667Y-79555566D02*
X140438000Y-79622233D01*
X140438000Y-79622233D02*
X140438000Y-79788900D01*
X140438000Y-79788900D02*
X140404667Y-79855566D01*
X140404667Y-79855566D02*
X140371333Y-79888900D01*
X140371333Y-79888900D02*
X140304667Y-79922233D01*
X140304667Y-79922233D02*
X140104667Y-79922233D01*
X140104667Y-79922233D02*
X140038000Y-79888900D01*
X140038000Y-79888900D02*
X140004667Y-79855566D01*
X143034467Y-95209900D02*
X143034467Y-95543233D01*
X142801133Y-94843233D02*
X143034467Y-95209900D01*
X143034467Y-95209900D02*
X143267800Y-94843233D01*
X143867800Y-95543233D02*
X143467800Y-95543233D01*
X143667800Y-95543233D02*
X143667800Y-94843233D01*
X143667800Y-94843233D02*
X143601133Y-94943233D01*
X143601133Y-94943233D02*
X143534467Y-95009900D01*
X143534467Y-95009900D02*
X143467800Y-95043233D01*
X121386666Y-78449433D02*
X121386666Y-77749433D01*
X121386666Y-78082766D02*
X121786666Y-78082766D01*
X121786666Y-78449433D02*
X121786666Y-77749433D01*
X122053333Y-77749433D02*
X122486666Y-77749433D01*
X122486666Y-77749433D02*
X122253333Y-78016100D01*
X122253333Y-78016100D02*
X122353333Y-78016100D01*
X122353333Y-78016100D02*
X122419999Y-78049433D01*
X122419999Y-78049433D02*
X122453333Y-78082766D01*
X122453333Y-78082766D02*
X122486666Y-78149433D01*
X122486666Y-78149433D02*
X122486666Y-78316100D01*
X122486666Y-78316100D02*
X122453333Y-78382766D01*
X122453333Y-78382766D02*
X122419999Y-78416100D01*
X122419999Y-78416100D02*
X122353333Y-78449433D01*
X122353333Y-78449433D02*
X122153333Y-78449433D01*
X122153333Y-78449433D02*
X122086666Y-78416100D01*
X122086666Y-78416100D02*
X122053333Y-78382766D01*
X124973466Y-103987233D02*
X124973466Y-104487233D01*
X124973466Y-104487233D02*
X124940133Y-104587233D01*
X124940133Y-104587233D02*
X124873466Y-104653900D01*
X124873466Y-104653900D02*
X124773466Y-104687233D01*
X124773466Y-104687233D02*
X124706800Y-104687233D01*
X125240133Y-103987233D02*
X125673466Y-103987233D01*
X125673466Y-103987233D02*
X125440133Y-104253900D01*
X125440133Y-104253900D02*
X125540133Y-104253900D01*
X125540133Y-104253900D02*
X125606799Y-104287233D01*
X125606799Y-104287233D02*
X125640133Y-104320566D01*
X125640133Y-104320566D02*
X125673466Y-104387233D01*
X125673466Y-104387233D02*
X125673466Y-104553900D01*
X125673466Y-104553900D02*
X125640133Y-104620566D01*
X125640133Y-104620566D02*
X125606799Y-104653900D01*
X125606799Y-104653900D02*
X125540133Y-104687233D01*
X125540133Y-104687233D02*
X125340133Y-104687233D01*
X125340133Y-104687233D02*
X125273466Y-104653900D01*
X125273466Y-104653900D02*
X125240133Y-104620566D01*
X130359666Y-85191233D02*
X130359666Y-85757900D01*
X130359666Y-85757900D02*
X130393000Y-85824566D01*
X130393000Y-85824566D02*
X130426333Y-85857900D01*
X130426333Y-85857900D02*
X130493000Y-85891233D01*
X130493000Y-85891233D02*
X130626333Y-85891233D01*
X130626333Y-85891233D02*
X130693000Y-85857900D01*
X130693000Y-85857900D02*
X130726333Y-85824566D01*
X130726333Y-85824566D02*
X130759666Y-85757900D01*
X130759666Y-85757900D02*
X130759666Y-85191233D01*
X131059666Y-85257900D02*
X131092999Y-85224566D01*
X131092999Y-85224566D02*
X131159666Y-85191233D01*
X131159666Y-85191233D02*
X131326333Y-85191233D01*
X131326333Y-85191233D02*
X131392999Y-85224566D01*
X131392999Y-85224566D02*
X131426333Y-85257900D01*
X131426333Y-85257900D02*
X131459666Y-85324566D01*
X131459666Y-85324566D02*
X131459666Y-85391233D01*
X131459666Y-85391233D02*
X131426333Y-85491233D01*
X131426333Y-85491233D02*
X131026333Y-85891233D01*
X131026333Y-85891233D02*
X131459666Y-85891233D01*
X158252333Y-90108633D02*
X158019000Y-89775300D01*
X157852333Y-90108633D02*
X157852333Y-89408633D01*
X157852333Y-89408633D02*
X158119000Y-89408633D01*
X158119000Y-89408633D02*
X158185667Y-89441966D01*
X158185667Y-89441966D02*
X158219000Y-89475300D01*
X158219000Y-89475300D02*
X158252333Y-89541966D01*
X158252333Y-89541966D02*
X158252333Y-89641966D01*
X158252333Y-89641966D02*
X158219000Y-89708633D01*
X158219000Y-89708633D02*
X158185667Y-89741966D01*
X158185667Y-89741966D02*
X158119000Y-89775300D01*
X158119000Y-89775300D02*
X157852333Y-89775300D01*
X158919000Y-90108633D02*
X158519000Y-90108633D01*
X158719000Y-90108633D02*
X158719000Y-89408633D01*
X158719000Y-89408633D02*
X158652333Y-89508633D01*
X158652333Y-89508633D02*
X158585667Y-89575300D01*
X158585667Y-89575300D02*
X158519000Y-89608633D01*
X153411133Y-83351233D02*
X153177800Y-83017900D01*
X153011133Y-83351233D02*
X153011133Y-82651233D01*
X153011133Y-82651233D02*
X153277800Y-82651233D01*
X153277800Y-82651233D02*
X153344467Y-82684566D01*
X153344467Y-82684566D02*
X153377800Y-82717900D01*
X153377800Y-82717900D02*
X153411133Y-82784566D01*
X153411133Y-82784566D02*
X153411133Y-82884566D01*
X153411133Y-82884566D02*
X153377800Y-82951233D01*
X153377800Y-82951233D02*
X153344467Y-82984566D01*
X153344467Y-82984566D02*
X153277800Y-83017900D01*
X153277800Y-83017900D02*
X153011133Y-83017900D01*
X154011133Y-82884566D02*
X154011133Y-83351233D01*
X153844467Y-82617900D02*
X153677800Y-83117900D01*
X153677800Y-83117900D02*
X154111133Y-83117900D01*
X163906266Y-78551033D02*
X163906266Y-77851033D01*
X163906266Y-78184366D02*
X164306266Y-78184366D01*
X164306266Y-78551033D02*
X164306266Y-77851033D01*
X165006266Y-78551033D02*
X164606266Y-78551033D01*
X164806266Y-78551033D02*
X164806266Y-77851033D01*
X164806266Y-77851033D02*
X164739599Y-77951033D01*
X164739599Y-77951033D02*
X164672933Y-78017700D01*
X164672933Y-78017700D02*
X164606266Y-78051033D01*
X157375333Y-79796233D02*
X157375333Y-79096233D01*
X157375333Y-79096233D02*
X157542000Y-79096233D01*
X157542000Y-79096233D02*
X157642000Y-79129566D01*
X157642000Y-79129566D02*
X157708667Y-79196233D01*
X157708667Y-79196233D02*
X157742000Y-79262900D01*
X157742000Y-79262900D02*
X157775333Y-79396233D01*
X157775333Y-79396233D02*
X157775333Y-79496233D01*
X157775333Y-79496233D02*
X157742000Y-79629566D01*
X157742000Y-79629566D02*
X157708667Y-79696233D01*
X157708667Y-79696233D02*
X157642000Y-79762900D01*
X157642000Y-79762900D02*
X157542000Y-79796233D01*
X157542000Y-79796233D02*
X157375333Y-79796233D01*
X158042000Y-79162900D02*
X158075333Y-79129566D01*
X158075333Y-79129566D02*
X158142000Y-79096233D01*
X158142000Y-79096233D02*
X158308667Y-79096233D01*
X158308667Y-79096233D02*
X158375333Y-79129566D01*
X158375333Y-79129566D02*
X158408667Y-79162900D01*
X158408667Y-79162900D02*
X158442000Y-79229566D01*
X158442000Y-79229566D02*
X158442000Y-79296233D01*
X158442000Y-79296233D02*
X158408667Y-79396233D01*
X158408667Y-79396233D02*
X158008667Y-79796233D01*
X158008667Y-79796233D02*
X158442000Y-79796233D01*
X153411133Y-86705033D02*
X153177800Y-86371700D01*
X153011133Y-86705033D02*
X153011133Y-86005033D01*
X153011133Y-86005033D02*
X153277800Y-86005033D01*
X153277800Y-86005033D02*
X153344467Y-86038366D01*
X153344467Y-86038366D02*
X153377800Y-86071700D01*
X153377800Y-86071700D02*
X153411133Y-86138366D01*
X153411133Y-86138366D02*
X153411133Y-86238366D01*
X153411133Y-86238366D02*
X153377800Y-86305033D01*
X153377800Y-86305033D02*
X153344467Y-86338366D01*
X153344467Y-86338366D02*
X153277800Y-86371700D01*
X153277800Y-86371700D02*
X153011133Y-86371700D01*
X154044467Y-86005033D02*
X153711133Y-86005033D01*
X153711133Y-86005033D02*
X153677800Y-86338366D01*
X153677800Y-86338366D02*
X153711133Y-86305033D01*
X153711133Y-86305033D02*
X153777800Y-86271700D01*
X153777800Y-86271700D02*
X153944467Y-86271700D01*
X153944467Y-86271700D02*
X154011133Y-86305033D01*
X154011133Y-86305033D02*
X154044467Y-86338366D01*
X154044467Y-86338366D02*
X154077800Y-86405033D01*
X154077800Y-86405033D02*
X154077800Y-86571700D01*
X154077800Y-86571700D02*
X154044467Y-86638366D01*
X154044467Y-86638366D02*
X154011133Y-86671700D01*
X154011133Y-86671700D02*
X153944467Y-86705033D01*
X153944467Y-86705033D02*
X153777800Y-86705033D01*
X153777800Y-86705033D02*
X153711133Y-86671700D01*
X153711133Y-86671700D02*
X153677800Y-86638366D01*
X142834466Y-88747233D02*
X142834466Y-89313900D01*
X142834466Y-89313900D02*
X142867800Y-89380566D01*
X142867800Y-89380566D02*
X142901133Y-89413900D01*
X142901133Y-89413900D02*
X142967800Y-89447233D01*
X142967800Y-89447233D02*
X143101133Y-89447233D01*
X143101133Y-89447233D02*
X143167800Y-89413900D01*
X143167800Y-89413900D02*
X143201133Y-89380566D01*
X143201133Y-89380566D02*
X143234466Y-89313900D01*
X143234466Y-89313900D02*
X143234466Y-88747233D01*
X143501133Y-88747233D02*
X143934466Y-88747233D01*
X143934466Y-88747233D02*
X143701133Y-89013900D01*
X143701133Y-89013900D02*
X143801133Y-89013900D01*
X143801133Y-89013900D02*
X143867799Y-89047233D01*
X143867799Y-89047233D02*
X143901133Y-89080566D01*
X143901133Y-89080566D02*
X143934466Y-89147233D01*
X143934466Y-89147233D02*
X143934466Y-89313900D01*
X143934466Y-89313900D02*
X143901133Y-89380566D01*
X143901133Y-89380566D02*
X143867799Y-89413900D01*
X143867799Y-89413900D02*
X143801133Y-89447233D01*
X143801133Y-89447233D02*
X143601133Y-89447233D01*
X143601133Y-89447233D02*
X143534466Y-89413900D01*
X143534466Y-89413900D02*
X143501133Y-89380566D01*
D12*
%TO.C,C1*%
X158016348Y-87301400D02*
X158538852Y-87301400D01*
X158016348Y-88771400D02*
X158538852Y-88771400D01*
%TO.C,J1*%
X163566800Y-93208800D02*
X164896800Y-93208800D01*
X163566800Y-94538800D02*
X163566800Y-93208800D01*
X163566800Y-95808800D02*
X163566800Y-103488800D01*
X163566800Y-95808800D02*
X166226800Y-95808800D01*
X163566800Y-103488800D02*
X166226800Y-103488800D01*
X166226800Y-95808800D02*
X166226800Y-103488800D01*
%TO.C,R7*%
X153767764Y-92175000D02*
X153313636Y-92175000D01*
X153767764Y-90705000D02*
X153313636Y-90705000D01*
%TO.C,R3*%
X131202800Y-102309664D02*
X131202800Y-101855536D01*
X132672800Y-102309664D02*
X132672800Y-101855536D01*
%TO.C,BT1*%
X120564600Y-86422000D02*
X121894600Y-86422000D01*
X120564600Y-87752000D02*
X120564600Y-86422000D01*
X120564600Y-89022000D02*
X120564600Y-91622000D01*
X120564600Y-89022000D02*
X123224600Y-89022000D01*
X120564600Y-91622000D02*
X123224600Y-91622000D01*
X123224600Y-89022000D02*
X123224600Y-91622000D01*
%TO.C,R2*%
X129624800Y-101855536D02*
X129624800Y-102309664D01*
X128154800Y-101855536D02*
X128154800Y-102309664D01*
%TO.C,Y2*%
X120120000Y-102848000D02*
X123720000Y-102848000D01*
X123720000Y-102848000D02*
X123720000Y-95598000D01*
X120120000Y-95598000D02*
X120120000Y-102848000D01*
%TO.C,J4*%
X161026800Y-84420400D02*
X162356800Y-84420400D01*
X161026800Y-85750400D02*
X161026800Y-84420400D01*
X161026800Y-87020400D02*
X161026800Y-92160400D01*
X161026800Y-87020400D02*
X163626800Y-87020400D01*
X161026800Y-92160400D02*
X166226800Y-92160400D01*
X163626800Y-84420400D02*
X166226800Y-84420400D01*
X163626800Y-87020400D02*
X163626800Y-84420400D01*
X166226800Y-84420400D02*
X166226800Y-92160400D01*
%TO.C,C4*%
X144076748Y-80418000D02*
X144599252Y-80418000D01*
X144076748Y-81888000D02*
X144599252Y-81888000D01*
%TO.C,J2*%
X150054000Y-108060800D02*
X150054000Y-106730800D01*
X151384000Y-108060800D02*
X150054000Y-108060800D01*
X152654000Y-108060800D02*
X160334000Y-108060800D01*
X152654000Y-108060800D02*
X152654000Y-105400800D01*
X160334000Y-108060800D02*
X160334000Y-105400800D01*
X152654000Y-105400800D02*
X160334000Y-105400800D01*
%TO.C,D1*%
X151891300Y-80167600D02*
X151891300Y-82087600D01*
X151891300Y-82087600D02*
X154576300Y-82087600D01*
X154576300Y-80167600D02*
X151891300Y-80167600D01*
%TO.C,C2*%
X153259448Y-94057800D02*
X153781952Y-94057800D01*
X153259448Y-95527800D02*
X153781952Y-95527800D01*
%TO.C,C5*%
X148963052Y-81862600D02*
X148440548Y-81862600D01*
X148963052Y-80392600D02*
X148440548Y-80392600D01*
%TO.C,U1*%
X128145500Y-79370700D02*
X128145500Y-79653200D01*
X128145500Y-84865700D02*
X128145500Y-84583200D01*
X130893000Y-79370700D02*
X128145500Y-79370700D01*
X130893000Y-79370700D02*
X133640500Y-79370700D01*
X130893000Y-84865700D02*
X128145500Y-84865700D01*
X130893000Y-84865700D02*
X133640500Y-84865700D01*
X133640500Y-79370700D02*
X133640500Y-79653200D01*
X133640500Y-84865700D02*
X133640500Y-84583200D01*
X127374250Y-79653200D02*
X127134250Y-79323200D01*
X127614250Y-79323200D01*
X127374250Y-79653200D01*
G36*
X127374250Y-79653200D02*
G01*
X127134250Y-79323200D01*
X127614250Y-79323200D01*
X127374250Y-79653200D01*
G37*
D13*
%TO.C,U4*%
X128683000Y-94889000D02*
X132683000Y-94889000D01*
X128683000Y-99929000D02*
X132683000Y-99929000D01*
D14*
X126338000Y-94914000D02*
G75*
G03*
X126138000Y-94914000I-100000J0D01*
G01*
X126138000Y-94914000D02*
G75*
G03*
X126338000Y-94914000I100000J0D01*
G01*
D12*
%TO.C,R6*%
X158126736Y-93854600D02*
X158580864Y-93854600D01*
X158126736Y-95324600D02*
X158580864Y-95324600D01*
%TO.C,C3*%
X139626748Y-80418000D02*
X140149252Y-80418000D01*
X139626748Y-81888000D02*
X140149252Y-81888000D01*
%TO.C,Y1*%
X147958400Y-99590000D02*
X147958400Y-95990000D01*
X147958400Y-95990000D02*
X140708400Y-95990000D01*
X140708400Y-99590000D02*
X147958400Y-99590000D01*
%TO.C,J3*%
X125136600Y-108035400D02*
X125136600Y-106705400D01*
X126466600Y-108035400D02*
X125136600Y-108035400D01*
X127736600Y-108035400D02*
X148116600Y-108035400D01*
X127736600Y-108035400D02*
X127736600Y-105375400D01*
X148116600Y-108035400D02*
X148116600Y-105375400D01*
X127736600Y-105375400D02*
X148116600Y-105375400D01*
%TO.C,U2*%
X128145500Y-86200700D02*
X128145500Y-86483200D01*
X128145500Y-91695700D02*
X128145500Y-91413200D01*
X130893000Y-86200700D02*
X128145500Y-86200700D01*
X130893000Y-86200700D02*
X133640500Y-86200700D01*
X130893000Y-91695700D02*
X128145500Y-91695700D01*
X130893000Y-91695700D02*
X133640500Y-91695700D01*
X133640500Y-86200700D02*
X133640500Y-86483200D01*
X133640500Y-91695700D02*
X133640500Y-91413200D01*
X127374250Y-86483200D02*
X127134250Y-86153200D01*
X127614250Y-86153200D01*
X127374250Y-86483200D01*
G36*
X127374250Y-86483200D02*
G01*
X127134250Y-86153200D01*
X127614250Y-86153200D01*
X127374250Y-86483200D01*
G37*
%TO.C,R1*%
X158141936Y-90705000D02*
X158596064Y-90705000D01*
X158141936Y-92175000D02*
X158596064Y-92175000D01*
%TO.C,R4*%
X153341336Y-83796200D02*
X153795464Y-83796200D01*
X153341336Y-85266200D02*
X153795464Y-85266200D01*
%TO.C,D2*%
X156207000Y-80167600D02*
X156207000Y-82087600D01*
X156207000Y-82087600D02*
X158892000Y-82087600D01*
X158892000Y-80167600D02*
X156207000Y-80167600D01*
%TO.C,R5*%
X153313636Y-87301400D02*
X153767764Y-87301400D01*
X153313636Y-88771400D02*
X153767764Y-88771400D01*
D13*
%TO.C,U3*%
X140010000Y-85527000D02*
X140010000Y-85632000D01*
X140010000Y-85527000D02*
X140115000Y-85527000D01*
X140010000Y-92527000D02*
X140010000Y-92422000D01*
X140010000Y-92527000D02*
X140115000Y-92527000D01*
X147010000Y-85527000D02*
X146905000Y-85527000D01*
X147010000Y-85527000D02*
X147010000Y-85632000D01*
X147010000Y-92527000D02*
X146905000Y-92527000D01*
X147010000Y-92527000D02*
X147010000Y-92422000D01*
D14*
X137770000Y-86227000D02*
G75*
G03*
X137570000Y-86227000I-100000J0D01*
G01*
X137570000Y-86227000D02*
G75*
G03*
X137770000Y-86227000I100000J0D01*
G01*
%TD*%
M02*
