%TF.GenerationSoftware,KiCad,Pcbnew,7.0.11*%
%TF.CreationDate,2024-06-18T14:21:46+05:30*%
%TF.ProjectId,Atmega328p_board,41746d65-6761-4333-9238-705f626f6172,1*%
%TF.SameCoordinates,Original*%
%TF.FileFunction,Soldermask,Top*%
%TF.FilePolarity,Negative*%
%FSLAX46Y46*%
G04 Gerber Fmt 4.6, Leading zero omitted, Abs format (unit mm)*
G04 Created by KiCad (PCBNEW 7.0.11) date 2024-06-18 14:21:46*
%MOMM*%
%LPD*%
G01*
G04 APERTURE LIST*
G04 Aperture macros list*
%AMRoundRect*
0 Rectangle with rounded corners*
0 $1 Rounding radius*
0 $2 $3 $4 $5 $6 $7 $8 $9 X,Y pos of 4 corners*
0 Add a 4 corners polygon primitive as box body*
4,1,4,$2,$3,$4,$5,$6,$7,$8,$9,$2,$3,0*
0 Add four circle primitives for the rounded corners*
1,1,$1+$1,$2,$3*
1,1,$1+$1,$4,$5*
1,1,$1+$1,$6,$7*
1,1,$1+$1,$8,$9*
0 Add four rect primitives between the rounded corners*
20,1,$1+$1,$2,$3,$4,$5,0*
20,1,$1+$1,$4,$5,$6,$7,0*
20,1,$1+$1,$6,$7,$8,$9,0*
20,1,$1+$1,$8,$9,$2,$3,0*%
G04 Aperture macros list end*
%ADD10RoundRect,0.250000X-0.250000X-0.475000X0.250000X-0.475000X0.250000X0.475000X-0.250000X0.475000X0*%
%ADD11R,1.700000X1.700000*%
%ADD12O,1.700000X1.700000*%
%ADD13RoundRect,0.250000X0.262500X0.450000X-0.262500X0.450000X-0.262500X-0.450000X0.262500X-0.450000X0*%
%ADD14RoundRect,0.250000X0.450000X-0.262500X0.450000X0.262500X-0.450000X0.262500X-0.450000X-0.262500X0*%
%ADD15RoundRect,0.250000X-0.450000X0.262500X-0.450000X-0.262500X0.450000X-0.262500X0.450000X0.262500X0*%
%ADD16R,2.400000X3.500000*%
%ADD17C,2.100000*%
%ADD18RoundRect,0.243750X-0.243750X-0.456250X0.243750X-0.456250X0.243750X0.456250X-0.243750X0.456250X0*%
%ADD19RoundRect,0.250000X0.250000X0.475000X-0.250000X0.475000X-0.250000X-0.475000X0.250000X-0.475000X0*%
%ADD20RoundRect,0.150000X-0.650000X-0.150000X0.650000X-0.150000X0.650000X0.150000X-0.650000X0.150000X0*%
%ADD21RoundRect,0.099250X-0.987750X-0.297750X0.987750X-0.297750X0.987750X0.297750X-0.987750X0.297750X0*%
%ADD22RoundRect,0.250000X-0.262500X-0.450000X0.262500X-0.450000X0.262500X0.450000X-0.262500X0.450000X0*%
%ADD23R,3.500000X2.400000*%
%ADD24RoundRect,0.094250X-0.742750X-0.282750X0.742750X-0.282750X0.742750X0.282750X-0.742750X0.282750X0*%
%ADD25RoundRect,0.094250X-0.282750X-0.742750X0.282750X-0.742750X0.282750X0.742750X-0.282750X0.742750X0*%
G04 APERTURE END LIST*
D10*
%TO.C,C1*%
X157327600Y-88036400D03*
X159227600Y-88036400D03*
%TD*%
D11*
%TO.C,J1*%
X164896800Y-94538800D03*
D12*
X164896800Y-97078800D03*
X164896800Y-99618800D03*
X164896800Y-102158800D03*
%TD*%
D13*
%TO.C,R7*%
X154453200Y-91440000D03*
X152628200Y-91440000D03*
%TD*%
D14*
%TO.C,R3*%
X131937800Y-102995100D03*
X131937800Y-101170100D03*
%TD*%
D11*
%TO.C,BT1*%
X121894600Y-87752000D03*
D12*
X121894600Y-90292000D03*
%TD*%
D15*
%TO.C,R2*%
X128889800Y-101170100D03*
X128889800Y-102995100D03*
%TD*%
D16*
%TO.C,Y2*%
X121920000Y-100898000D03*
X121920000Y-95698000D03*
%TD*%
D11*
%TO.C,J4*%
X162356800Y-85750400D03*
D12*
X164896800Y-85750400D03*
X162356800Y-88290400D03*
X164896800Y-88290400D03*
X162356800Y-90830400D03*
X164896800Y-90830400D03*
%TD*%
D10*
%TO.C,C4*%
X143388000Y-81153000D03*
X145288000Y-81153000D03*
%TD*%
D17*
%TO.C,H2*%
X164439600Y-106629200D03*
%TD*%
D11*
%TO.C,J2*%
X151384000Y-106730800D03*
D12*
X153924000Y-106730800D03*
X156464000Y-106730800D03*
X159004000Y-106730800D03*
%TD*%
D18*
%TO.C,D1*%
X152638800Y-81127600D03*
X154513800Y-81127600D03*
%TD*%
D10*
%TO.C,C2*%
X152570700Y-94792800D03*
X154470700Y-94792800D03*
%TD*%
D19*
%TO.C,C5*%
X149651800Y-81127600D03*
X147751800Y-81127600D03*
%TD*%
D20*
%TO.C,U1*%
X127293000Y-80213200D03*
X127293000Y-81483200D03*
X127293000Y-82753200D03*
X127293000Y-84023200D03*
X134493000Y-84023200D03*
X134493000Y-82753200D03*
X134493000Y-81483200D03*
X134493000Y-80213200D03*
%TD*%
D17*
%TO.C,H4*%
X121894600Y-106578400D03*
%TD*%
D21*
%TO.C,U4*%
X128208000Y-95504000D03*
X128208000Y-96774000D03*
X128208000Y-98044000D03*
X128208000Y-99314000D03*
X133158000Y-99314000D03*
X133158000Y-98044000D03*
X133158000Y-96774000D03*
X133158000Y-95504000D03*
%TD*%
D22*
%TO.C,R6*%
X157441300Y-94589600D03*
X159266300Y-94589600D03*
%TD*%
D10*
%TO.C,C3*%
X138938000Y-81153000D03*
X140838000Y-81153000D03*
%TD*%
D23*
%TO.C,Y1*%
X146008400Y-97790000D03*
X140808400Y-97790000D03*
%TD*%
D17*
%TO.C,H3*%
X121920000Y-81330800D03*
%TD*%
D11*
%TO.C,J3*%
X126466600Y-106705400D03*
D12*
X129006600Y-106705400D03*
X131546600Y-106705400D03*
X134086600Y-106705400D03*
X136626600Y-106705400D03*
X139166600Y-106705400D03*
X141706600Y-106705400D03*
X144246600Y-106705400D03*
X146786600Y-106705400D03*
%TD*%
D20*
%TO.C,U2*%
X127293000Y-87043200D03*
X127293000Y-88313200D03*
X127293000Y-89583200D03*
X127293000Y-90853200D03*
X134493000Y-90853200D03*
X134493000Y-89583200D03*
X134493000Y-88313200D03*
X134493000Y-87043200D03*
%TD*%
D22*
%TO.C,R1*%
X157456500Y-91440000D03*
X159281500Y-91440000D03*
%TD*%
%TO.C,R4*%
X152655900Y-84531200D03*
X154480900Y-84531200D03*
%TD*%
D17*
%TO.C,H1*%
X164439600Y-81432400D03*
%TD*%
D18*
%TO.C,D2*%
X156954500Y-81127600D03*
X158829500Y-81127600D03*
%TD*%
D22*
%TO.C,R5*%
X152628200Y-88036400D03*
X154453200Y-88036400D03*
%TD*%
D24*
%TO.C,U3*%
X139340000Y-86227000D03*
X139340000Y-87027000D03*
X139340000Y-87827000D03*
X139340000Y-88627000D03*
X139340000Y-89427000D03*
X139340000Y-90227000D03*
X139340000Y-91027000D03*
X139340000Y-91827000D03*
D25*
X140710000Y-93197000D03*
X141510000Y-93197000D03*
X142310000Y-93197000D03*
X143110000Y-93197000D03*
X143910000Y-93197000D03*
X144710000Y-93197000D03*
X145510000Y-93197000D03*
X146310000Y-93197000D03*
D24*
X147680000Y-91827000D03*
X147680000Y-91027000D03*
X147680000Y-90227000D03*
X147680000Y-89427000D03*
X147680000Y-88627000D03*
X147680000Y-87827000D03*
X147680000Y-87027000D03*
X147680000Y-86227000D03*
D25*
X146310000Y-84857000D03*
X145510000Y-84857000D03*
X144710000Y-84857000D03*
X143910000Y-84857000D03*
X143110000Y-84857000D03*
X142310000Y-84857000D03*
X141510000Y-84857000D03*
X140710000Y-84857000D03*
%TD*%
M02*
