%TF.GenerationSoftware,KiCad,Pcbnew,7.0.11*%
%TF.CreationDate,2024-06-18T14:21:46+05:30*%
%TF.ProjectId,Atmega328p_board,41746d65-6761-4333-9238-705f626f6172,1*%
%TF.SameCoordinates,Original*%
%TF.FileFunction,Copper,L2,Inr*%
%TF.FilePolarity,Positive*%
%FSLAX46Y46*%
G04 Gerber Fmt 4.6, Leading zero omitted, Abs format (unit mm)*
G04 Created by KiCad (PCBNEW 7.0.11) date 2024-06-18 14:21:46*
%MOMM*%
%LPD*%
G01*
G04 APERTURE LIST*
%TA.AperFunction,ComponentPad*%
%ADD10R,1.700000X1.700000*%
%TD*%
%TA.AperFunction,ComponentPad*%
%ADD11O,1.700000X1.700000*%
%TD*%
%TA.AperFunction,ViaPad*%
%ADD12C,0.900000*%
%TD*%
%TA.AperFunction,ViaPad*%
%ADD13C,0.800000*%
%TD*%
%TA.AperFunction,Conductor*%
%ADD14C,0.350000*%
%TD*%
%TA.AperFunction,Conductor*%
%ADD15C,0.250000*%
%TD*%
G04 APERTURE END LIST*
D10*
%TO.N,GND*%
%TO.C,J1*%
X164896800Y-94538800D03*
D11*
%TO.N,/VCC*%
X164896800Y-97078800D03*
%TO.N,/SDA*%
X164896800Y-99618800D03*
%TO.N,/SCK*%
X164896800Y-102158800D03*
%TD*%
D10*
%TO.N,/VCC*%
%TO.C,BT1*%
X121894600Y-87752000D03*
D11*
%TO.N,GND*%
X121894600Y-90292000D03*
%TD*%
D10*
%TO.N,/MISO*%
%TO.C,J4*%
X162356800Y-85750400D03*
D11*
%TO.N,/VCC*%
X164896800Y-85750400D03*
%TO.N,/SCK*%
X162356800Y-88290400D03*
%TO.N,/MOSI*%
X164896800Y-88290400D03*
%TO.N,/RESET*%
X162356800Y-90830400D03*
%TO.N,GND*%
X164896800Y-90830400D03*
%TD*%
D10*
%TO.N,GND*%
%TO.C,J2*%
X151384000Y-106730800D03*
D11*
%TO.N,/VCC*%
X153924000Y-106730800D03*
%TO.N,/RX*%
X156464000Y-106730800D03*
%TO.N,/TX*%
X159004000Y-106730800D03*
%TD*%
D10*
%TO.N,/D2*%
%TO.C,J3*%
X126466600Y-106705400D03*
D11*
%TO.N,/D3*%
X129006600Y-106705400D03*
%TO.N,/D4*%
X131546600Y-106705400D03*
%TO.N,/D5*%
X134086600Y-106705400D03*
%TO.N,/D6*%
X136626600Y-106705400D03*
%TO.N,/D7*%
X139166600Y-106705400D03*
%TO.N,/D8*%
X141706600Y-106705400D03*
%TO.N,GND*%
X144246600Y-106705400D03*
%TO.N,/VCC*%
X146786600Y-106705400D03*
%TD*%
D12*
%TO.N,GND*%
X129667000Y-84074000D03*
X137033000Y-82334600D03*
X151003000Y-81153000D03*
X124841000Y-84074000D03*
X149463800Y-88620600D03*
X141732000Y-89027000D03*
X155559800Y-93700600D03*
X132715000Y-88265000D03*
%TO.N,/VCC*%
X141732000Y-90177003D03*
X129778800Y-87096600D03*
X133461800Y-85699600D03*
X149336800Y-91668600D03*
D13*
%TO.N,Net-(U3-PB6)*%
X140827800Y-91033600D03*
X141986000Y-80802600D03*
X140827800Y-99923600D03*
%TO.N,Net-(U3-PB7)*%
X142097800Y-99923600D03*
X139303800Y-92938600D03*
X144526000Y-82550000D03*
%TO.N,/SDA*%
X144764800Y-86715600D03*
X153654800Y-93065600D03*
X134604800Y-85318600D03*
%TO.N,/SCK*%
X143113800Y-83286600D03*
X156575800Y-84556600D03*
X159266300Y-96528300D03*
%TO.N,/RX*%
X142351800Y-87223600D03*
%TO.N,/TX*%
X142859800Y-88747600D03*
%TO.N,/MISO*%
X146288800Y-87223600D03*
%TO.N,/MOSI*%
X144256800Y-91287600D03*
%TO.N,/RESET*%
X143113800Y-86461600D03*
%TD*%
D14*
%TO.N,/VCC*%
X131175800Y-85699600D02*
X129778800Y-87096600D01*
X122778600Y-86868000D02*
X129550200Y-86868000D01*
X129550200Y-86868000D02*
X129778800Y-87096600D01*
X121894600Y-87752000D02*
X122778600Y-86868000D01*
X133461800Y-85699600D02*
X133649505Y-85699600D01*
X133461800Y-85699600D02*
X131175800Y-85699600D01*
D15*
%TO.N,Net-(U3-PB6)*%
X140827800Y-99923600D02*
X140827800Y-91033600D01*
X140827800Y-91033600D02*
X140827800Y-81960800D01*
X140827800Y-81960800D02*
X141986000Y-80802600D01*
%TO.N,/SCK*%
X155305800Y-83286600D02*
X156575800Y-84556600D01*
X143113800Y-83286600D02*
X155305800Y-83286600D01*
X163531800Y-92262800D02*
X159266300Y-96528300D01*
X162356800Y-88290400D02*
X163531800Y-89465400D01*
X163531800Y-89465400D02*
X163531800Y-92262800D01*
%TO.N,/RX*%
X142351800Y-87223600D02*
X143239404Y-87223600D01*
X156464000Y-100192800D02*
X156464000Y-106730800D01*
X146356404Y-90340600D02*
X146611800Y-90340600D01*
X146611800Y-90340600D02*
X156464000Y-100192800D01*
X143239404Y-87223600D02*
X146356404Y-90340600D01*
%TO.N,/TX*%
X142859800Y-88747600D02*
X155289000Y-101176800D01*
X155813800Y-107924600D02*
X157810200Y-107924600D01*
X157810200Y-107924600D02*
X159004000Y-106730800D01*
X155289000Y-107399800D02*
X155813800Y-107924600D01*
X155289000Y-101176800D02*
X155289000Y-107399800D01*
%TO.N,/MISO*%
X162356800Y-85750400D02*
X147762000Y-85750400D01*
X147762000Y-85750400D02*
X146288800Y-87223600D01*
%TO.N,/RESET*%
X143113800Y-86461600D02*
X146542800Y-89890600D01*
X146542800Y-89890600D02*
X161417000Y-89890600D01*
X161417000Y-89890600D02*
X162356800Y-90830400D01*
%TD*%
M02*
