M48
; DRILL file {KiCad 7.0.11} date 
; FORMAT={-:-/ absolute / inch / decimal}
; #@! TF.CreationDate,2024-06-18T14:21:52+05:30
; #@! TF.GenerationSoftware,Kicad,Pcbnew,7.0.11
; #@! TF.FileFunction,Plated,1,4,PTH
FMAT,2
INCH
; #@! TA.AperFunction,Plated,PTH,ViaDrill
T1C0.0157
; #@! TA.AperFunction,Plated,PTH,ComponentDrill
T2C0.0394
%
G90
G05
T1
X4.915Y-3.31
X5.105Y-3.31
X5.1094Y-3.429
X5.225Y-3.475
X5.2544Y-3.374
X5.2994Y-3.359
X5.395Y-3.2415
X5.4844Y-3.659
X5.5444Y-3.584
X5.5444Y-3.934
X5.58Y-3.505
X5.58Y-3.5503
X5.59Y-3.1812
X5.5944Y-3.934
X5.6044Y-3.434
X5.6244Y-3.494
X5.6344Y-3.279
X5.6344Y-3.404
X5.6794Y-3.594
X5.69Y-3.25
X5.6994Y-3.414
X5.7594Y-3.434
X5.8794Y-3.609
X5.8844Y-3.489
X5.945Y-3.195
X6.0494Y-3.664
X6.1244Y-3.689
X6.1644Y-3.329
X6.2703Y-3.8003
T2
X4.799Y-3.4548
X4.799Y-3.5548
X4.979Y-4.201
X5.079Y-4.201
X5.179Y-4.201
X5.279Y-4.201
X5.379Y-4.201
X5.479Y-4.201
X5.579Y-4.201
X5.679Y-4.201
X5.779Y-4.201
X5.96Y-4.202
X6.06Y-4.202
X6.16Y-4.202
X6.26Y-4.202
X6.392Y-3.376
X6.392Y-3.476
X6.392Y-3.576
X6.492Y-3.376
X6.492Y-3.476
X6.492Y-3.576
X6.492Y-3.722
X6.492Y-3.822
X6.492Y-3.922
X6.492Y-4.022
M30
