M48
; DRILL file {KiCad 7.0.11} date 
; FORMAT={-:-/ absolute / inch / decimal}
; #@! TF.CreationDate,2024-06-17T21:40:29+05:30
; #@! TF.GenerationSoftware,Kicad,Pcbnew,7.0.11
; #@! TF.FileFunction,Plated,1,2,PTH
FMAT,2
INCH
; #@! TA.AperFunction,Plated,PTH,ViaDrill
T1C0.0157
; #@! TA.AperFunction,Plated,PTH,ComponentDrill
T2C0.0394
%
G90
G05
T1
X4.9494Y-3.429
X5.0054Y-4.074
X5.0124Y-3.981
X5.1094Y-3.429
X5.1144Y-3.479
X5.1994Y-3.4809
X5.3594Y-3.309
X5.3953Y-3.4157
X5.3977Y-3.455
X5.3994Y-3.519
X5.4054Y-3.31
X5.4094Y-3.2405
X5.4368Y-3.5939
X5.4399Y-4.0245
X5.4556Y-3.9352
X5.5394Y-3.734
X5.5448Y-3.5833
X5.565Y-3.404
X5.5694Y-3.614
X5.5894Y-3.194
X5.6034Y-3.734
X5.6044Y-3.404
X5.6494Y-3.738
X5.6746Y-3.2488
X5.6994Y-3.404
X5.6994Y-3.459
X5.7094Y-4.024
X5.7144Y-3.524
X5.8494Y-3.284
X5.8644Y-3.734
X5.8894Y-4.134
X5.9094Y-3.594
X5.9544Y-3.599
X6.0054Y-3.394
X6.0094Y-3.984
X6.0544Y-4.139
X6.0815Y-3.7911
X6.1244Y-3.424
X6.1494Y-3.664
X6.1494Y-3.714
X6.1594Y-4.039
X6.1794Y-3.264
X6.1908Y-3.955
X6.2487Y-3.8247
X6.2487Y-3.989
X6.2494Y-3.264
X6.2694Y-3.409
X6.3244Y-3.644
X6.3344Y-3.294
X6.4044Y-3.824
X6.4094Y-3.724
X6.4094Y-3.884
T2
X4.799Y-3.4548
X4.799Y-3.5548
X4.979Y-4.201
X5.079Y-4.201
X5.179Y-4.201
X5.279Y-4.201
X5.379Y-4.201
X5.479Y-4.201
X5.579Y-4.201
X5.679Y-4.201
X5.779Y-4.201
X5.96Y-4.202
X6.06Y-4.202
X6.16Y-4.202
X6.26Y-4.202
X6.392Y-3.376
X6.392Y-3.476
X6.392Y-3.576
X6.492Y-3.376
X6.492Y-3.476
X6.492Y-3.576
X6.492Y-3.722
X6.492Y-3.822
X6.492Y-3.922
X6.492Y-4.022
M30
